<svg width="664" height="331" viewBox="0 0 664 331" fill="none" xmlns="http://www.w3.org/2000/svg">
<g id="Frame 1">
<rect id="Rectangle 1" x="101" y="80" width="460" height="173" fill="#A50000" stroke="#910101" stroke-width="10" stroke-linejoin="round"/>
<g id="Group 1">
<g id="buble1">
<g id="Ellipse 3" filter="url(#filter0_f_0_1)">
<circle cx="331" cy="94" r="13" fill="#F3C409"/>
</g>
<g id="Ellipse 2" filter="url(#filter1_f_0_1)">
<circle cx="331" cy="94" r="10" fill="#FFE373"/>
</g>
</g>
<g id="buble1_2">
<g id="Ellipse 3_2" filter="url(#filter2_f_0_1)">
<circle cx="295" cy="94" r="13" fill="#F3C409"/>
</g>
<g id="Ellipse 2_2" filter="url(#filter3_f_0_1)">
<circle cx="295" cy="94" r="10" fill="#FFE373"/>
</g>
</g>
<g id="buble1_3">
<g id="Ellipse 3_3" filter="url(#filter4_f_0_1)">
<circle cx="331" cy="94" r="13" fill="#F3C409"/>
</g>
<g id="Ellipse 2_3" filter="url(#filter5_f_0_1)">
<circle cx="331" cy="94" r="10" fill="#FFE373"/>
</g>
</g>
<g id="buble1_4">
<g id="Ellipse 3_4" filter="url(#filter6_f_0_1)">
<circle cx="367" cy="94" r="13" fill="#F3C409"/>
</g>
<g id="Ellipse 2_4" filter="url(#filter7_f_0_1)">
<circle cx="367" cy="94" r="10" fill="#FFE373"/>
</g>
</g>
<g id="buble1_5">
<g id="Ellipse 3_5" filter="url(#filter8_f_0_1)">
<circle cx="403" cy="94" r="13" fill="#F3C409"/>
</g>
<g id="Ellipse 2_5" filter="url(#filter9_f_0_1)">
<circle cx="403" cy="94" r="10" fill="#FFE373"/>
</g>
</g>
<g id="buble1_6">
<g id="Ellipse 3_6" filter="url(#filter10_f_0_1)">
<circle cx="439" cy="94" r="13" fill="#F3C409"/>
</g>
<g id="Ellipse 2_6" filter="url(#filter11_f_0_1)">
<circle cx="439" cy="94" r="10" fill="#FFE373"/>
</g>
</g>
<g id="buble1_7">
<g id="Ellipse 3_7" filter="url(#filter12_f_0_1)">
<circle cx="475" cy="94" r="13" fill="#F3C409"/>
</g>
<g id="Ellipse 2_7" filter="url(#filter13_f_0_1)">
<circle cx="475" cy="94" r="10" fill="#FFE373"/>
</g>
</g>
<g id="buble1_8">
<g id="Ellipse 3_8" filter="url(#filter14_f_0_1)">
<circle cx="511" cy="94" r="13" fill="#F3C409"/>
</g>
<g id="Ellipse 2_8" filter="url(#filter15_f_0_1)">
<circle cx="511" cy="94" r="10" fill="#FFE373"/>
</g>
</g>
<g id="buble1_9">
<g id="Ellipse 3_9" filter="url(#filter16_f_0_1)">
<circle cx="547" cy="94" r="13" fill="#F3C409"/>
</g>
<g id="Ellipse 2_9" filter="url(#filter17_f_0_1)">
<circle cx="547" cy="94" r="10" fill="#FFE373"/>
</g>
</g>
<g id="buble1_10">
<g id="Ellipse 3_10" filter="url(#filter18_f_0_1)">
<circle cx="151" cy="94" r="13" fill="#F3C409"/>
</g>
<g id="Ellipse 2_10" filter="url(#filter19_f_0_1)">
<circle cx="151" cy="94" r="10" fill="#FFE373"/>
</g>
</g>
<g id="buble1_11">
<g id="Ellipse 3_11" filter="url(#filter20_f_0_1)">
<circle cx="187" cy="94" r="13" fill="#F3C409"/>
</g>
<g id="Ellipse 2_11" filter="url(#filter21_f_0_1)">
<circle cx="187" cy="94" r="10" fill="#FFE373"/>
</g>
</g>
<g id="buble1_12">
<g id="Ellipse 3_12" filter="url(#filter22_f_0_1)">
<circle cx="115" cy="94" r="13" fill="#F3C409"/>
</g>
<g id="Ellipse 2_12" filter="url(#filter23_f_0_1)">
<circle cx="115" cy="94" r="10" fill="#FFE373"/>
</g>
</g>
<g id="buble1_13">
<g id="Ellipse 3_13" filter="url(#filter24_f_0_1)">
<circle cx="115" cy="132" r="13" fill="#F3C409"/>
</g>
<g id="Ellipse 2_13" filter="url(#filter25_f_0_1)">
<circle cx="115" cy="132" r="10" fill="#FFE373"/>
</g>
</g>
<g id="buble1_14">
<g id="Ellipse 3_14" filter="url(#filter26_f_0_1)">
<circle cx="115" cy="167" r="13" fill="#F3C409"/>
</g>
<g id="Ellipse 2_14" filter="url(#filter27_f_0_1)">
<circle cx="115" cy="167" r="10" fill="#FFE373"/>
</g>
</g>
<g id="buble1_15">
<g id="Ellipse 3_15" filter="url(#filter28_f_0_1)">
<circle cx="115" cy="202" r="13" fill="#F3C409"/>
</g>
<g id="Ellipse 2_15" filter="url(#filter29_f_0_1)">
<circle cx="115" cy="202" r="10" fill="#FFE373"/>
</g>
</g>
<g id="buble1_16">
<g id="Ellipse 3_16" filter="url(#filter30_f_0_1)">
<circle cx="115" cy="240" r="13" fill="#F3C409"/>
</g>
<g id="Ellipse 2_16" filter="url(#filter31_f_0_1)">
<circle cx="115" cy="240" r="10" fill="#FFE373"/>
</g>
</g>
<g id="buble1_17">
<g id="Ellipse 3_17" filter="url(#filter32_f_0_1)">
<circle cx="547" cy="132" r="13" fill="#F3C409"/>
</g>
<g id="Ellipse 2_17" filter="url(#filter33_f_0_1)">
<circle cx="547" cy="132" r="10" fill="#FFE373"/>
</g>
</g>
<g id="buble1_18">
<g id="Ellipse 3_18" filter="url(#filter34_f_0_1)">
<circle cx="547" cy="167" r="13" fill="#F3C409"/>
</g>
<g id="Ellipse 2_18" filter="url(#filter35_f_0_1)">
<circle cx="547" cy="167" r="10" fill="#FFE373"/>
</g>
</g>
<g id="buble1_19">
<g id="Ellipse 3_19" filter="url(#filter36_f_0_1)">
<circle cx="547" cy="202" r="13" fill="#F3C409"/>
</g>
<g id="Ellipse 2_19" filter="url(#filter37_f_0_1)">
<circle cx="547" cy="202" r="10" fill="#FFE373"/>
</g>
</g>
<g id="buble1_20">
<g id="Ellipse 3_20" filter="url(#filter38_f_0_1)">
<circle cx="547" cy="240" r="13" fill="#F3C409"/>
</g>
<g id="Ellipse 2_20" filter="url(#filter39_f_0_1)">
<circle cx="547" cy="240" r="10" fill="#FFE373"/>
</g>
</g>
<g id="buble1_21">
<g id="Ellipse 3_21" filter="url(#filter40_f_0_1)">
<circle cx="223" cy="94" r="13" fill="#F3C409"/>
</g>
<g id="Ellipse 2_21" filter="url(#filter41_f_0_1)">
<circle cx="223" cy="94" r="10" fill="#FFE373"/>
</g>
</g>
<g id="buble1_22">
<g id="Ellipse 3_22" filter="url(#filter42_f_0_1)">
<circle cx="259" cy="94" r="13" fill="#F3C409"/>
</g>
<g id="Ellipse 2_22" filter="url(#filter43_f_0_1)">
<circle cx="259" cy="94" r="10" fill="#FFE373"/>
</g>
</g>
<g id="buble1_23">
<g id="Ellipse 3_23" filter="url(#filter44_f_0_1)">
<circle cx="295" cy="240" r="13" fill="#F3C409"/>
</g>
<g id="Ellipse 2_23" filter="url(#filter45_f_0_1)">
<circle cx="295" cy="240" r="10" fill="#FFE373"/>
</g>
</g>
<g id="buble1_24">
<g id="Ellipse 3_24" filter="url(#filter46_f_0_1)">
<circle cx="331" cy="240" r="13" fill="#F3C409"/>
</g>
<g id="Ellipse 2_24" filter="url(#filter47_f_0_1)">
<circle cx="331" cy="240" r="10" fill="#FFE373"/>
</g>
</g>
<g id="buble1_25">
<g id="Ellipse 3_25" filter="url(#filter48_f_0_1)">
<circle cx="367" cy="240" r="13" fill="#F3C409"/>
</g>
<g id="Ellipse 2_25" filter="url(#filter49_f_0_1)">
<circle cx="367" cy="240" r="10" fill="#FFE373"/>
</g>
</g>
<g id="buble1_26">
<g id="Ellipse 3_26" filter="url(#filter50_f_0_1)">
<circle cx="403" cy="240" r="13" fill="#F3C409"/>
</g>
<g id="Ellipse 2_26" filter="url(#filter51_f_0_1)">
<circle cx="403" cy="240" r="10" fill="#FFE373"/>
</g>
</g>
<g id="buble1_27">
<g id="Ellipse 3_27" filter="url(#filter52_f_0_1)">
<circle cx="439" cy="240" r="13" fill="#F3C409"/>
</g>
<g id="Ellipse 2_27" filter="url(#filter53_f_0_1)">
<circle cx="439" cy="240" r="10" fill="#FFE373"/>
</g>
</g>
<g id="buble1_28">
<g id="Ellipse 3_28" filter="url(#filter54_f_0_1)">
<circle cx="475" cy="240" r="13" fill="#F3C409"/>
</g>
<g id="Ellipse 2_28" filter="url(#filter55_f_0_1)">
<circle cx="475" cy="240" r="10" fill="#FFE373"/>
</g>
</g>
<g id="buble1_29">
<g id="Ellipse 3_29" filter="url(#filter56_f_0_1)">
<circle cx="511" cy="240" r="13" fill="#F3C409"/>
</g>
<g id="Ellipse 2_29" filter="url(#filter57_f_0_1)">
<circle cx="511" cy="240" r="10" fill="#FFE373"/>
</g>
</g>
<g id="buble1_30">
<g id="Ellipse 3_30" filter="url(#filter58_f_0_1)">
<circle cx="151" cy="240" r="13" fill="#F3C409"/>
</g>
<g id="Ellipse 2_30" filter="url(#filter59_f_0_1)">
<circle cx="151" cy="240" r="10" fill="#FFE373"/>
</g>
</g>
<g id="buble1_31">
<g id="Ellipse 3_31" filter="url(#filter60_f_0_1)">
<circle cx="187" cy="240" r="13" fill="#F3C409"/>
</g>
<g id="Ellipse 2_31" filter="url(#filter61_f_0_1)">
<circle cx="187" cy="240" r="10" fill="#FFE373"/>
</g>
</g>
<g id="buble1_32">
<g id="Ellipse 3_32" filter="url(#filter62_f_0_1)">
<circle cx="223" cy="240" r="13" fill="#F3C409"/>
</g>
<g id="Ellipse 2_32" filter="url(#filter63_f_0_1)">
<circle cx="223" cy="240" r="10" fill="#FFE373"/>
</g>
</g>
<g id="buble1_33">
<g id="Ellipse 3_33" filter="url(#filter64_f_0_1)">
<circle cx="259" cy="240" r="13" fill="#F3C409"/>
</g>
<g id="Ellipse 2_33" filter="url(#filter65_f_0_1)">
<circle cx="259" cy="240" r="10" fill="#FFE373"/>
</g>
</g>
<g id="&#195;&#135;A ou &#195;&#135;A" filter="url(#filter66_f_0_1)">
<path d="M225.114 155.75H215.159C214.977 154.462 214.606 153.318 214.045 152.318C213.485 151.303 212.765 150.439 211.886 149.727C211.008 149.015 209.992 148.47 208.841 148.091C207.705 147.712 206.47 147.523 205.136 147.523C202.727 147.523 200.629 148.121 198.841 149.318C197.053 150.5 195.667 152.227 194.682 154.5C193.697 156.758 193.205 159.5 193.205 162.727C193.205 166.045 193.697 168.833 194.682 171.091C195.682 173.348 197.076 175.053 198.864 176.205C200.652 177.356 202.72 177.932 205.068 177.932C206.386 177.932 207.606 177.758 208.727 177.409C209.864 177.061 210.871 176.553 211.75 175.886C212.629 175.205 213.356 174.379 213.932 173.409C214.523 172.439 214.932 171.333 215.159 170.091L225.114 170.136C224.856 172.273 224.212 174.333 223.182 176.318C222.167 178.288 220.795 180.053 219.068 181.614C217.356 183.159 215.311 184.386 212.932 185.295C210.568 186.189 207.894 186.636 204.909 186.636C200.758 186.636 197.045 185.697 193.773 183.818C190.515 181.939 187.939 179.22 186.045 175.659C184.167 172.098 183.227 167.788 183.227 162.727C183.227 157.652 184.182 153.333 186.091 149.773C188 146.212 190.591 143.5 193.864 141.636C197.136 139.758 200.818 138.818 204.909 138.818C207.606 138.818 210.106 139.197 212.409 139.955C214.727 140.712 216.78 141.818 218.568 143.273C220.356 144.712 221.811 146.477 222.932 148.568C224.068 150.659 224.795 153.053 225.114 155.75ZM202.477 185.864H206.932L206.568 187.841C208.129 188.083 209.402 188.667 210.386 189.591C211.386 190.515 211.894 191.773 211.909 193.364C211.924 195.621 210.879 197.417 208.773 198.75C206.667 200.098 203.712 200.773 199.909 200.773L199.818 196.455C201.727 196.455 203.22 196.22 204.295 195.75C205.386 195.295 205.955 194.583 206 193.614C206.03 192.689 205.674 191.985 204.932 191.5C204.189 191.015 203.03 190.674 201.455 190.477L202.477 185.864ZM239.318 186H228.773L244.841 139.455H257.523L273.568 186H263.023L251.364 150.091H251L239.318 186ZM238.659 167.705H263.568V175.386H238.659V167.705ZM309.574 186.682C306.044 186.682 302.991 185.932 300.415 184.432C297.854 182.917 295.877 180.811 294.483 178.114C293.089 175.402 292.392 172.258 292.392 168.682C292.392 165.076 293.089 161.924 294.483 159.227C295.877 156.515 297.854 154.409 300.415 152.909C302.991 151.394 306.044 150.636 309.574 150.636C313.104 150.636 316.15 151.394 318.71 152.909C321.286 154.409 323.271 156.515 324.665 159.227C326.059 161.924 326.756 165.076 326.756 168.682C326.756 172.258 326.059 175.402 324.665 178.114C323.271 180.811 321.286 182.917 318.71 184.432C316.15 185.932 313.104 186.682 309.574 186.682ZM309.619 179.182C311.225 179.182 312.566 178.727 313.642 177.818C314.718 176.894 315.528 175.636 316.074 174.045C316.634 172.455 316.915 170.644 316.915 168.614C316.915 166.583 316.634 164.773 316.074 163.182C315.528 161.591 314.718 160.333 313.642 159.409C312.566 158.485 311.225 158.023 309.619 158.023C307.998 158.023 306.634 158.485 305.528 159.409C304.438 160.333 303.612 161.591 303.051 163.182C302.506 164.773 302.233 166.583 302.233 168.614C302.233 170.644 302.506 172.455 303.051 174.045C303.612 175.636 304.438 176.894 305.528 177.818C306.634 178.727 307.998 179.182 309.619 179.182ZM355.438 171.136V151.091H365.119V186H355.824V179.659H355.46C354.672 181.705 353.362 183.348 351.528 184.591C349.71 185.833 347.491 186.455 344.869 186.455C342.536 186.455 340.483 185.924 338.71 184.864C336.938 183.803 335.551 182.295 334.551 180.341C333.566 178.386 333.066 176.045 333.051 173.318V151.091H342.733V171.591C342.748 173.652 343.301 175.28 344.392 176.477C345.483 177.674 346.945 178.273 348.778 178.273C349.945 178.273 351.036 178.008 352.051 177.477C353.066 176.932 353.884 176.129 354.506 175.068C355.142 174.008 355.453 172.697 355.438 171.136ZM428.926 155.75H418.972C418.79 154.462 418.419 153.318 417.858 152.318C417.297 151.303 416.578 150.439 415.699 149.727C414.82 149.015 413.805 148.47 412.653 148.091C411.517 147.712 410.282 147.523 408.949 147.523C406.54 147.523 404.441 148.121 402.653 149.318C400.866 150.5 399.479 152.227 398.494 154.5C397.509 156.758 397.017 159.5 397.017 162.727C397.017 166.045 397.509 168.833 398.494 171.091C399.494 173.348 400.888 175.053 402.676 176.205C404.464 177.356 406.532 177.932 408.881 177.932C410.199 177.932 411.419 177.758 412.54 177.409C413.676 177.061 414.684 176.553 415.562 175.886C416.441 175.205 417.169 174.379 417.744 173.409C418.335 172.439 418.744 171.333 418.972 170.091L428.926 170.136C428.669 172.273 428.025 174.333 426.994 176.318C425.979 178.288 424.608 180.053 422.881 181.614C421.169 183.159 419.123 184.386 416.744 185.295C414.381 186.189 411.706 186.636 408.722 186.636C404.57 186.636 400.858 185.697 397.585 183.818C394.328 181.939 391.752 179.22 389.858 175.659C387.979 172.098 387.04 167.788 387.04 162.727C387.04 157.652 387.994 153.333 389.903 149.773C391.813 146.212 394.403 143.5 397.676 141.636C400.949 139.758 404.631 138.818 408.722 138.818C411.419 138.818 413.919 139.197 416.222 139.955C418.54 140.712 420.593 141.818 422.381 143.273C424.169 144.712 425.623 146.477 426.744 148.568C427.881 150.659 428.608 153.053 428.926 155.75ZM406.29 185.864H410.744L410.381 187.841C411.941 188.083 413.214 188.667 414.199 189.591C415.199 190.515 415.706 191.773 415.722 193.364C415.737 195.621 414.691 197.417 412.585 198.75C410.479 200.098 407.525 200.773 403.722 200.773L403.631 196.455C405.54 196.455 407.032 196.22 408.108 195.75C409.199 195.295 409.767 194.583 409.812 193.614C409.843 192.689 409.487 191.985 408.744 191.5C408.002 191.015 406.843 190.674 405.267 190.477L406.29 185.864ZM443.131 186H432.585L448.653 139.455H461.335L477.381 186H466.835L455.176 150.091H454.812L443.131 186ZM442.472 167.705H467.381V175.386H442.472V167.705Z" fill="#F3C409"/>
<path d="M225.114 155.75V156.75H226.239L226.107 155.633L225.114 155.75ZM215.159 155.75L214.169 155.89L214.29 156.75H215.159V155.75ZM214.045 152.318L213.17 152.802L213.173 152.807L214.045 152.318ZM211.886 149.727L211.257 150.504L211.257 150.504L211.886 149.727ZM208.841 148.091L208.525 149.04L208.528 149.041L208.841 148.091ZM198.841 149.318L199.392 150.152L199.397 150.149L198.841 149.318ZM194.682 154.5L195.598 154.9L195.599 154.898L194.682 154.5ZM194.682 171.091L193.765 171.491L193.768 171.496L194.682 171.091ZM198.864 176.205L198.322 177.045L198.322 177.045L198.864 176.205ZM208.727 177.409L208.434 176.453L208.43 176.454L208.727 177.409ZM211.75 175.886L212.354 176.683L212.363 176.676L211.75 175.886ZM213.932 173.409L213.078 172.889L213.072 172.899L213.932 173.409ZM215.159 170.091L215.164 169.091L214.326 169.087L214.175 169.911L215.159 170.091ZM225.114 170.136L226.106 170.256L226.241 169.141L225.118 169.136L225.114 170.136ZM223.182 176.318L222.294 175.857L222.293 175.86L223.182 176.318ZM219.068 181.614L219.738 182.356L219.739 182.356L219.068 181.614ZM212.932 185.295L213.286 186.231L213.289 186.23L212.932 185.295ZM193.773 183.818L193.273 184.684L193.275 184.685L193.773 183.818ZM186.045 175.659L185.161 176.126L185.163 176.129L186.045 175.659ZM186.091 149.773L186.972 150.245L186.972 150.245L186.091 149.773ZM193.864 141.636L194.358 142.505L194.362 142.504L193.864 141.636ZM212.409 139.955L212.097 140.904L212.098 140.905L212.409 139.955ZM218.568 143.273L217.937 144.048L217.941 144.052L218.568 143.273ZM222.932 148.568L222.051 149.041L222.053 149.046L222.932 148.568ZM202.477 185.864V184.864H201.675L201.501 185.647L202.477 185.864ZM206.932 185.864L207.915 186.045L208.132 184.864H206.932V185.864ZM206.568 187.841L205.585 187.66L205.399 188.671L206.415 188.829L206.568 187.841ZM210.386 189.591L209.702 190.32L209.708 190.325L210.386 189.591ZM211.909 193.364L212.909 193.357L212.909 193.354L211.909 193.364ZM208.773 198.75L208.238 197.905L208.234 197.908L208.773 198.75ZM199.909 200.773L198.909 200.794L198.93 201.773H199.909V200.773ZM199.818 196.455V195.455H198.797L198.818 196.476L199.818 196.455ZM204.295 195.75L203.911 194.827L203.903 194.83L203.895 194.834L204.295 195.75ZM206 193.614L206.999 193.66L206.999 193.646L206 193.614ZM204.932 191.5L204.385 192.337L204.385 192.337L204.932 191.5ZM201.455 190.477L200.478 190.261L200.241 191.333L201.331 191.47L201.455 190.477ZM225.114 154.75H215.159V156.75H225.114V154.75ZM216.149 155.61C215.952 154.216 215.547 152.951 214.918 151.829L213.173 152.807C213.666 153.686 214.002 154.708 214.169 155.89L216.149 155.61ZM214.921 151.835C214.3 150.71 213.497 149.746 212.516 148.95L211.257 150.504C212.033 151.133 212.67 151.896 213.17 152.802L214.921 151.835ZM212.516 148.95C211.536 148.156 210.412 147.555 209.153 147.141L208.528 149.041C209.573 149.384 210.479 149.874 211.257 150.504L212.516 148.95ZM209.157 147.142C207.908 146.726 206.565 146.523 205.136 146.523V148.523C206.374 148.523 207.501 148.698 208.525 149.04L209.157 147.142ZM205.136 146.523C202.554 146.523 200.256 147.167 198.285 148.487L199.397 150.149C201.001 149.075 202.901 148.523 205.136 148.523V146.523ZM198.289 148.484C196.316 149.789 194.814 151.68 193.764 154.102L195.599 154.898C196.519 152.774 197.79 151.211 199.392 150.152L198.289 148.484ZM193.765 154.1C192.711 156.516 192.205 159.403 192.205 162.727H194.205C194.205 159.597 194.683 156.999 195.598 154.9L193.765 154.1ZM192.205 162.727C192.205 166.138 192.71 169.071 193.765 171.491L195.598 170.691C194.684 168.595 194.205 165.953 194.205 162.727H192.205ZM193.768 171.496C194.834 173.903 196.345 175.772 198.322 177.045L199.405 175.364C197.807 174.334 196.53 172.794 195.596 170.686L193.768 171.496ZM198.322 177.045C200.288 178.311 202.548 178.932 205.068 178.932V176.932C202.891 176.932 201.015 176.401 199.405 175.364L198.322 177.045ZM205.068 178.932C206.475 178.932 207.796 178.746 209.024 178.364L208.43 176.454C207.416 176.769 206.298 176.932 205.068 176.932V178.932ZM209.02 178.365C210.26 177.985 211.375 177.426 212.354 176.683L211.146 175.09C210.367 175.68 209.467 176.136 208.434 176.453L209.02 178.365ZM212.363 176.676C213.342 175.917 214.153 174.996 214.792 173.92L213.072 172.899C212.559 173.762 211.915 174.492 211.137 175.096L212.363 176.676ZM214.786 173.929C215.447 172.844 215.896 171.62 216.143 170.271L214.175 169.911C213.968 171.046 213.598 172.035 213.078 172.889L214.786 173.929ZM215.155 171.091L225.109 171.136L225.118 169.136L215.164 169.091L215.155 171.091ZM224.121 170.017C223.878 172.029 223.272 173.975 222.294 175.857L224.069 176.779C225.153 174.692 225.834 172.516 226.106 170.256L224.121 170.017ZM222.293 175.86C221.336 177.717 220.04 179.388 218.398 180.872L219.739 182.356C221.551 180.718 222.998 178.858 224.071 176.776L222.293 175.86ZM218.398 180.871C216.787 182.326 214.85 183.492 212.575 184.361L213.289 186.23C215.771 185.281 217.925 183.992 219.738 182.356L218.398 180.871ZM212.578 184.36C210.346 185.204 207.795 185.636 204.909 185.636V187.636C207.993 187.636 210.79 187.174 213.286 186.231L212.578 184.36ZM204.909 185.636C200.914 185.636 197.377 184.734 194.271 182.951L193.275 184.685C196.714 186.66 200.601 187.636 204.909 187.636V185.636ZM194.272 182.952C191.189 181.174 188.741 178.597 186.928 175.189L185.163 176.129C187.138 179.842 189.841 182.705 193.273 184.684L194.272 182.952ZM186.93 175.192C185.144 171.808 184.227 167.666 184.227 162.727H182.227C182.227 167.91 183.189 172.389 185.161 176.126L186.93 175.192ZM184.227 162.727C184.227 157.775 185.159 153.628 186.972 150.245L185.21 149.3C183.205 153.039 182.227 157.528 182.227 162.727H184.227ZM186.972 150.245C188.799 146.838 191.261 144.269 194.358 142.505L193.369 140.767C189.921 142.731 187.201 145.586 185.21 149.3L186.972 150.245ZM194.362 142.504C197.47 140.719 200.978 139.818 204.909 139.818V137.818C200.659 137.818 196.803 138.796 193.366 140.769L194.362 142.504ZM204.909 139.818C207.512 139.818 209.905 140.184 212.097 140.904L212.722 139.005C210.307 138.21 207.7 137.818 204.909 137.818V139.818ZM212.098 140.905C214.307 141.627 216.25 142.676 217.937 144.048L219.199 142.497C217.311 140.961 215.148 139.797 212.72 139.004L212.098 140.905ZM217.941 144.052C219.621 145.404 220.99 147.064 222.051 149.041L223.813 148.096C222.631 145.891 221.091 144.02 219.195 142.494L217.941 144.052ZM222.053 149.046C223.121 151.01 223.815 153.279 224.121 155.867L226.107 155.633C225.776 152.827 225.015 150.308 223.81 148.091L222.053 149.046ZM202.477 186.864H206.932V184.864H202.477V186.864ZM205.948 185.683L205.585 187.66L207.552 188.022L207.915 186.045L205.948 185.683ZM206.415 188.829C207.811 189.046 208.888 189.556 209.702 190.32L211.071 188.862C209.915 187.778 208.447 187.121 206.722 186.853L206.415 188.829ZM209.708 190.325C210.471 191.031 210.896 192.007 210.909 193.373L212.909 193.354C212.892 191.538 212.302 190 211.065 188.857L209.708 190.325ZM210.909 193.37C210.922 195.242 210.089 196.733 208.238 197.905L209.308 199.595C211.669 198.1 212.927 196 212.909 193.357L210.909 193.37ZM208.234 197.908C206.352 199.113 203.613 199.773 199.909 199.773V201.773C203.811 201.773 206.982 201.084 209.312 199.592L208.234 197.908ZM200.909 200.752L200.818 196.433L198.818 196.476L198.909 200.794L200.909 200.752ZM199.818 197.455C201.789 197.455 203.439 197.215 204.696 196.666L203.895 194.834C203 195.224 201.665 195.455 199.818 195.455V197.455ZM204.68 196.673C205.336 196.4 205.906 196.02 206.321 195.499C206.746 194.967 206.967 194.341 206.999 193.66L205.001 193.567C204.988 193.856 204.902 194.071 204.758 194.251C204.606 194.442 204.346 194.646 203.911 194.827L204.68 196.673ZM206.999 193.646C207.041 192.391 206.529 191.348 205.479 190.663L204.385 192.337C204.82 192.621 205.02 192.988 205.001 193.581L206.999 193.646ZM205.479 190.663C204.545 190.053 203.204 189.688 201.579 189.485L201.331 191.47C202.857 191.66 203.834 191.978 204.385 192.337L205.479 190.663ZM202.431 190.694L203.454 186.08L201.501 185.647L200.478 190.261L202.431 190.694ZM239.318 186V187H240.044L240.269 186.309L239.318 186ZM228.773 186L227.827 185.674L227.37 187H228.773V186ZM244.841 139.455V138.455H244.128L243.896 139.128L244.841 139.455ZM257.523 139.455L258.468 139.129L258.236 138.455H257.523V139.455ZM273.568 186V187H274.971L274.514 185.674L273.568 186ZM263.023 186L262.072 186.309L262.296 187H263.023V186ZM251.364 150.091L252.315 149.782L252.09 149.091H251.364V150.091ZM251 150.091V149.091H250.274L250.049 149.782L251 150.091ZM238.659 167.705V166.705H237.659V167.705H238.659ZM263.568 167.705H264.568V166.705H263.568V167.705ZM263.568 175.386V176.386H264.568V175.386H263.568ZM238.659 175.386H237.659V176.386H238.659V175.386ZM239.318 185H228.773V187H239.318V185ZM229.718 186.326L245.786 139.781L243.896 139.128L227.827 185.674L229.718 186.326ZM244.841 140.455H257.523V138.455H244.841V140.455ZM256.577 139.78L272.623 186.326L274.514 185.674L258.468 139.129L256.577 139.78ZM273.568 185H263.023V187H273.568V185ZM263.974 185.691L252.315 149.782L250.413 150.4L262.072 186.309L263.974 185.691ZM251.364 149.091H251V151.091H251.364V149.091ZM250.049 149.782L238.367 185.691L240.269 186.309L251.951 150.4L250.049 149.782ZM238.659 168.705H263.568V166.705H238.659V168.705ZM262.568 167.705V175.386H264.568V167.705H262.568ZM263.568 174.386H238.659V176.386H263.568V174.386ZM239.659 175.386V167.705H237.659V175.386H239.659ZM300.415 184.432L299.906 185.292L299.912 185.296L300.415 184.432ZM294.483 178.114L293.594 178.571L293.595 178.573L294.483 178.114ZM294.483 159.227L295.371 159.686L295.372 159.684L294.483 159.227ZM300.415 152.909L300.92 153.772L300.922 153.771L300.415 152.909ZM318.71 152.909L318.201 153.77L318.207 153.773L318.71 152.909ZM324.665 159.227L323.775 159.684L323.776 159.686L324.665 159.227ZM324.665 178.114L325.553 178.573L325.554 178.571L324.665 178.114ZM318.71 184.432L319.216 185.295L319.217 185.294L318.71 184.432ZM313.642 177.818L314.288 178.582L314.294 178.577L313.642 177.818ZM316.074 174.045L315.131 173.713L315.128 173.721L316.074 174.045ZM316.074 163.182L315.128 163.506L315.131 163.514L316.074 163.182ZM305.528 159.409L304.887 158.642L304.882 158.646L305.528 159.409ZM303.051 163.182L302.108 162.849L302.105 162.857L303.051 163.182ZM303.051 174.045L302.105 174.37L302.108 174.378L303.051 174.045ZM305.528 177.818L304.882 178.581L304.888 178.586L304.893 178.591L305.528 177.818ZM309.574 185.682C306.188 185.682 303.315 184.964 300.918 183.568L299.912 185.296C302.666 186.9 305.9 187.682 309.574 187.682V185.682ZM300.924 183.571C298.528 182.154 296.681 180.188 295.371 177.654L293.595 178.573C295.073 181.433 297.18 183.68 299.906 185.292L300.924 183.571ZM295.372 177.657C294.063 175.108 293.392 172.126 293.392 168.682H291.392C291.392 172.389 292.115 175.695 293.594 178.571L295.372 177.657ZM293.392 168.682C293.392 165.206 294.063 162.217 295.371 159.686L293.595 158.768C292.115 161.631 291.392 164.946 291.392 168.682H293.392ZM295.372 159.684C296.682 157.136 298.528 155.173 300.92 153.772L299.909 152.046C297.18 153.645 295.072 155.894 293.594 158.77L295.372 159.684ZM300.922 153.771C303.318 152.361 306.189 151.636 309.574 151.636V149.636C305.898 149.636 302.663 150.426 299.908 152.047L300.922 153.771ZM309.574 151.636C312.959 151.636 315.821 152.362 318.201 153.77L319.219 152.048C316.478 150.426 313.25 149.636 309.574 149.636V151.636ZM318.207 153.773C320.614 155.175 322.467 157.138 323.775 159.684L325.554 158.77C324.075 155.892 321.958 153.643 319.213 152.045L318.207 153.773ZM323.776 159.686C325.084 162.217 325.756 165.206 325.756 168.682H327.756C327.756 164.946 327.033 161.631 325.553 158.768L323.776 159.686ZM325.756 168.682C325.756 172.126 325.085 175.108 323.775 177.657L325.554 178.571C327.032 175.695 327.756 172.389 327.756 168.682H325.756ZM323.776 177.654C322.468 180.187 320.614 182.152 318.203 183.57L319.217 185.294C321.958 183.681 324.074 181.434 325.553 178.573L323.776 177.654ZM318.205 183.569C315.824 184.963 312.96 185.682 309.574 185.682V187.682C313.248 187.682 316.475 186.9 319.216 185.295L318.205 183.569ZM309.619 180.182C311.427 180.182 313.006 179.665 314.288 178.582L312.997 177.054C312.126 177.79 311.024 178.182 309.619 178.182V180.182ZM314.294 178.577C315.528 177.517 316.427 176.098 317.02 174.37L315.128 173.721C314.629 175.175 313.908 176.271 312.99 177.06L314.294 178.577ZM317.017 174.378C317.622 172.661 317.915 170.735 317.915 168.614H315.915C315.915 170.553 315.647 172.248 315.131 173.713L317.017 174.378ZM317.915 168.614C317.915 166.492 317.622 164.566 317.017 162.849L315.131 163.514C315.647 164.979 315.915 166.674 315.915 168.614H317.915ZM317.02 162.857C316.427 161.13 315.528 159.711 314.294 158.651L312.99 160.168C313.908 160.956 314.629 162.052 315.128 163.506L317.02 162.857ZM314.294 158.651C313.013 157.55 311.431 157.023 309.619 157.023V159.023C311.02 159.023 312.12 159.42 312.99 160.168L314.294 158.651ZM309.619 157.023C307.795 157.023 306.196 157.548 304.887 158.642L306.17 160.176C307.073 159.421 308.201 159.023 309.619 159.023V157.023ZM304.882 158.646C303.633 159.704 302.717 161.122 302.108 162.849L303.994 163.514C304.507 162.06 305.242 160.963 306.175 160.172L304.882 158.646ZM302.105 162.857C301.517 164.572 301.233 166.495 301.233 168.614H303.233C303.233 166.672 303.494 164.974 303.997 163.506L302.105 162.857ZM301.233 168.614C301.233 170.732 301.517 172.655 302.105 174.37L303.997 173.721C303.494 172.254 303.233 170.556 303.233 168.614H301.233ZM302.108 174.378C302.717 176.106 303.633 177.523 304.882 178.581L306.175 177.055C305.242 176.265 304.507 175.167 303.994 173.713L302.108 174.378ZM304.893 178.591C306.202 179.666 307.799 180.182 309.619 180.182V178.182C308.197 178.182 307.067 177.788 306.163 177.046L304.893 178.591ZM355.438 171.136H354.437L354.438 171.146L355.438 171.136ZM355.438 151.091V150.091H354.438V151.091H355.438ZM365.119 151.091H366.119V150.091H365.119V151.091ZM365.119 186V187H366.119V186H365.119ZM355.824 186H354.824V187H355.824V186ZM355.824 179.659H356.824V178.659H355.824V179.659ZM355.46 179.659V178.659H354.774L354.527 179.3L355.46 179.659ZM351.528 184.591L350.967 183.763L350.964 183.765L351.528 184.591ZM338.71 184.864L339.224 184.005L339.224 184.005L338.71 184.864ZM334.551 180.341L333.658 180.791L333.661 180.796L334.551 180.341ZM333.051 173.318H332.051L332.051 173.324L333.051 173.318ZM333.051 151.091V150.091H332.051V151.091H333.051ZM342.733 151.091H343.733V150.091H342.733V151.091ZM342.733 171.591H341.733L341.733 171.598L342.733 171.591ZM344.392 176.477L345.131 175.804L345.131 175.804L344.392 176.477ZM352.051 177.477L352.514 178.364L352.524 178.358L352.051 177.477ZM354.506 175.068L353.648 174.554L353.643 174.563L354.506 175.068ZM356.438 171.136V151.091H354.438V171.136H356.438ZM355.438 152.091H365.119V150.091H355.438V152.091ZM364.119 151.091V186H366.119V151.091H364.119ZM365.119 185H355.824V187H365.119V185ZM356.824 186V179.659H354.824V186H356.824ZM355.824 178.659H355.46V180.659H355.824V178.659ZM354.527 179.3C353.813 181.153 352.634 182.634 350.967 183.763L352.089 185.419C354.09 184.063 355.531 182.257 356.393 180.019L354.527 179.3ZM350.964 183.765C349.342 184.874 347.328 185.455 344.869 185.455V187.455C347.653 187.455 350.079 186.793 352.093 185.417L350.964 183.765ZM344.869 185.455C342.693 185.455 340.822 184.962 339.224 184.005L338.197 185.722C340.144 186.887 342.379 187.455 344.869 187.455V185.455ZM339.224 184.005C337.622 183.047 336.362 181.684 335.441 179.885L333.661 180.796C334.741 182.907 336.253 184.559 338.197 185.722L339.224 184.005ZM335.444 179.891C334.544 178.104 334.066 175.923 334.051 173.313L332.051 173.324C332.067 176.168 332.589 178.669 333.658 180.791L335.444 179.891ZM334.051 173.318V151.091H332.051V173.318H334.051ZM333.051 152.091H342.733V150.091H333.051V152.091ZM341.733 151.091V171.591H343.733V151.091H341.733ZM341.733 171.598C341.749 173.836 342.354 175.726 343.653 177.151L345.131 175.804C344.248 174.835 343.747 173.467 343.733 171.584L341.733 171.598ZM343.653 177.151C344.959 178.584 346.705 179.273 348.778 179.273V177.273C347.185 177.273 346.007 176.764 345.131 175.804L343.653 177.151ZM348.778 179.273C350.103 179.273 351.353 178.97 352.514 178.364L351.588 176.591C350.719 177.045 349.787 177.273 348.778 177.273V179.273ZM352.524 178.358C353.712 177.72 354.661 176.782 355.369 175.574L353.643 174.563C353.108 175.476 352.42 176.144 351.578 176.596L352.524 178.358ZM355.363 175.583C356.116 174.327 356.454 172.824 356.437 171.127L354.438 171.146C354.451 172.57 354.168 173.688 353.648 174.554L355.363 175.583ZM428.926 155.75V156.75H430.051L429.919 155.633L428.926 155.75ZM418.972 155.75L417.981 155.89L418.103 156.75H418.972V155.75ZM417.858 152.318L416.983 152.802L416.986 152.807L417.858 152.318ZM415.699 149.727L415.069 150.504L415.069 150.504L415.699 149.727ZM412.653 148.091L412.337 149.04L412.341 149.041L412.653 148.091ZM402.653 149.318L403.205 150.152L403.21 150.149L402.653 149.318ZM398.494 154.5L399.411 154.9L399.412 154.898L398.494 154.5ZM398.494 171.091L397.578 171.491L397.58 171.496L398.494 171.091ZM402.676 176.205L402.135 177.045L402.135 177.045L402.676 176.205ZM412.54 177.409L412.247 176.453L412.243 176.454L412.54 177.409ZM415.562 175.886L416.167 176.683L416.175 176.676L415.562 175.886ZM417.744 173.409L416.89 172.889L416.884 172.899L417.744 173.409ZM418.972 170.091L418.976 169.091L418.139 169.087L417.988 169.911L418.972 170.091ZM428.926 170.136L429.919 170.256L430.053 169.141L428.931 169.136L428.926 170.136ZM426.994 176.318L426.107 175.857L426.105 175.86L426.994 176.318ZM422.881 181.614L423.551 182.356L423.551 182.356L422.881 181.614ZM416.744 185.295L417.098 186.231L417.101 186.23L416.744 185.295ZM397.585 183.818L397.086 184.684L397.087 184.685L397.585 183.818ZM389.858 175.659L388.974 176.126L388.975 176.129L389.858 175.659ZM389.903 149.773L390.785 150.245L390.785 150.245L389.903 149.773ZM397.676 141.636L398.171 142.505L398.174 142.504L397.676 141.636ZM416.222 139.955L415.909 140.904L415.911 140.905L416.222 139.955ZM422.381 143.273L421.75 144.048L421.754 144.052L422.381 143.273ZM426.744 148.568L425.863 149.041L425.866 149.046L426.744 148.568ZM406.29 185.864V184.864H405.487L405.313 185.647L406.29 185.864ZM410.744 185.864L411.728 186.045L411.945 184.864H410.744V185.864ZM410.381 187.841L409.397 187.66L409.211 188.671L410.227 188.829L410.381 187.841ZM414.199 189.591L413.515 190.32L413.52 190.325L414.199 189.591ZM415.722 193.364L416.722 193.357L416.722 193.354L415.722 193.364ZM412.585 198.75L412.05 197.905L412.046 197.908L412.585 198.75ZM403.722 200.773L402.722 200.794L402.742 201.773H403.722V200.773ZM403.631 196.455V195.455H402.609L402.631 196.476L403.631 196.455ZM408.108 195.75L407.723 194.827L407.716 194.83L407.708 194.834L408.108 195.75ZM409.812 193.614L410.812 193.66L410.812 193.646L409.812 193.614ZM408.744 191.5L408.198 192.337L408.198 192.337L408.744 191.5ZM405.267 190.477L404.291 190.261L404.053 191.333L405.143 191.47L405.267 190.477ZM428.926 154.75H418.972V156.75H428.926V154.75ZM419.962 155.61C419.765 154.216 419.359 152.951 418.73 151.829L416.986 152.807C417.478 153.686 417.815 154.708 417.981 155.89L419.962 155.61ZM418.733 151.835C418.112 150.71 417.31 149.746 416.328 148.95L415.069 150.504C415.845 151.133 416.483 151.896 416.983 152.802L418.733 151.835ZM416.328 148.95C415.349 148.156 414.224 147.555 412.966 147.141L412.341 149.041C413.385 149.384 414.291 149.874 415.069 150.504L416.328 148.95ZM412.97 147.142C411.72 146.726 410.378 146.523 408.949 146.523V148.523C410.187 148.523 411.314 148.698 412.337 149.04L412.97 147.142ZM408.949 146.523C406.366 146.523 404.069 147.167 402.097 148.487L403.21 150.149C404.814 149.075 406.713 148.523 408.949 148.523V146.523ZM402.102 148.484C400.128 149.789 398.626 151.68 397.577 154.102L399.412 154.898C400.332 152.774 401.603 151.211 403.205 150.152L402.102 148.484ZM397.578 154.1C396.524 156.516 396.017 159.403 396.017 162.727H398.017C398.017 159.597 398.495 156.999 399.411 154.9L397.578 154.1ZM396.017 162.727C396.017 166.138 396.522 169.071 397.578 171.491L399.411 170.691C398.497 168.595 398.017 165.953 398.017 162.727H396.017ZM397.58 171.496C398.646 173.903 400.158 175.772 402.135 177.045L403.218 175.364C401.619 174.334 400.343 172.794 399.409 170.686L397.58 171.496ZM402.135 177.045C404.101 178.311 406.361 178.932 408.881 178.932V176.932C406.703 176.932 404.827 176.401 403.218 175.364L402.135 177.045ZM408.881 178.932C410.287 178.932 411.608 178.746 412.837 178.364L412.243 176.454C411.229 176.769 410.11 176.932 408.881 176.932V178.932ZM412.833 178.365C414.073 177.985 415.188 177.426 416.167 176.683L414.958 175.09C414.18 175.68 413.279 176.136 412.247 176.453L412.833 178.365ZM416.175 176.676C417.155 175.917 417.965 174.996 418.604 173.92L416.884 172.899C416.372 173.762 415.728 174.492 414.95 175.096L416.175 176.676ZM418.598 173.929C419.26 172.844 419.708 171.62 419.955 170.271L417.988 169.911C417.78 171.046 417.411 172.035 416.89 172.889L418.598 173.929ZM418.967 171.091L428.922 171.136L428.931 169.136L418.976 169.091L418.967 171.091ZM427.933 170.017C427.691 172.029 427.084 173.975 426.107 175.857L427.882 176.779C428.965 174.692 429.646 172.516 429.919 170.256L427.933 170.017ZM426.105 175.86C425.148 177.717 423.853 179.388 422.21 180.872L423.551 182.356C425.363 180.718 426.81 178.858 427.883 176.776L426.105 175.86ZM422.211 180.871C420.599 182.326 418.663 183.492 416.387 184.361L417.101 186.23C419.583 185.281 421.738 183.992 423.551 182.356L422.211 180.871ZM416.391 184.36C414.158 185.204 411.607 185.636 408.722 185.636V187.636C411.806 187.636 414.603 187.174 417.098 186.231L416.391 184.36ZM408.722 185.636C404.727 185.636 401.189 184.734 398.083 182.951L397.087 184.685C400.526 186.66 404.413 187.636 408.722 187.636V185.636ZM398.085 182.952C395.002 181.174 392.553 178.597 390.741 175.189L388.975 176.129C390.95 179.842 393.654 182.705 397.086 184.684L398.085 182.952ZM390.742 175.192C388.957 171.808 388.04 167.666 388.04 162.727H386.04C386.04 167.91 387.002 172.389 388.974 176.126L390.742 175.192ZM388.04 162.727C388.04 157.775 388.971 153.628 390.785 150.245L389.022 149.3C387.018 153.039 386.04 157.528 386.04 162.727H388.04ZM390.785 150.245C392.612 146.838 395.074 144.269 398.171 142.505L397.181 140.767C393.733 142.731 391.013 145.586 389.022 149.3L390.785 150.245ZM398.174 142.504C401.283 140.719 404.79 139.818 408.722 139.818V137.818C404.471 137.818 400.615 138.796 397.178 140.769L398.174 142.504ZM408.722 139.818C411.324 139.818 413.718 140.184 415.909 140.904L416.534 139.005C414.12 138.21 411.513 137.818 408.722 137.818V139.818ZM415.911 140.905C418.119 141.627 420.062 142.676 421.75 144.048L423.012 142.497C421.123 140.961 418.96 139.797 416.532 139.004L415.911 140.905ZM421.754 144.052C423.434 145.404 424.803 147.064 425.863 149.041L427.626 148.096C426.443 145.891 424.904 144.02 423.008 142.494L421.754 144.052ZM425.866 149.046C426.933 151.01 427.628 153.279 427.933 155.867L429.919 155.633C429.588 152.827 428.828 150.308 427.623 148.091L425.866 149.046ZM406.29 186.864H410.744V184.864H406.29V186.864ZM409.761 185.683L409.397 187.66L411.364 188.022L411.728 186.045L409.761 185.683ZM410.227 188.829C411.623 189.046 412.7 189.556 413.515 190.32L414.883 188.862C413.728 187.778 412.259 187.121 410.534 186.853L410.227 188.829ZM413.52 190.325C414.283 191.031 414.709 192.007 414.722 193.373L416.722 193.354C416.704 191.538 416.114 190 414.878 188.857L413.52 190.325ZM414.722 193.37C414.734 195.242 413.901 196.733 412.05 197.905L413.12 199.595C415.482 198.1 416.739 196 416.722 193.357L414.722 193.37ZM412.046 197.908C410.164 199.113 407.426 199.773 403.722 199.773V201.773C407.623 201.773 410.794 201.084 413.124 199.592L412.046 197.908ZM404.721 200.752L404.63 196.433L402.631 196.476L402.722 200.794L404.721 200.752ZM403.631 197.455C405.602 197.455 407.251 197.215 408.508 196.666L407.708 194.834C406.813 195.224 405.478 195.455 403.631 195.455V197.455ZM408.493 196.673C409.149 196.4 409.718 196.02 410.134 195.499C410.558 194.967 410.78 194.341 410.811 193.66L408.814 193.567C408.8 193.856 408.714 194.071 408.571 194.251C408.418 194.442 408.158 194.646 407.723 194.827L408.493 196.673ZM410.812 193.646C410.853 192.391 410.341 191.348 409.291 190.663L408.198 192.337C408.632 192.621 408.832 192.988 408.813 193.581L410.812 193.646ZM409.291 190.663C408.357 190.053 407.016 189.688 405.391 189.485L405.143 191.47C406.669 191.66 407.647 191.978 408.198 192.337L409.291 190.663ZM406.243 190.694L407.266 186.08L405.313 185.647L404.291 190.261L406.243 190.694ZM443.131 186V187H443.857L444.082 186.309L443.131 186ZM432.585 186L431.64 185.674L431.182 187H432.585V186ZM448.653 139.455V138.455H447.941L447.708 139.128L448.653 139.455ZM461.335 139.455L462.281 139.129L462.048 138.455H461.335V139.455ZM477.381 186V187H478.783L478.326 185.674L477.381 186ZM466.835 186L465.884 186.309L466.109 187H466.835V186ZM455.176 150.091L456.127 149.782L455.903 149.091H455.176V150.091ZM454.812 150.091V149.091H454.086L453.862 149.782L454.812 150.091ZM442.472 167.705V166.705H441.472V167.705H442.472ZM467.381 167.705H468.381V166.705H467.381V167.705ZM467.381 175.386V176.386H468.381V175.386H467.381ZM442.472 175.386H441.472V176.386H442.472V175.386ZM443.131 185H432.585V187H443.131V185ZM433.53 186.326L449.599 139.781L447.708 139.128L431.64 185.674L433.53 186.326ZM448.653 140.455H461.335V138.455H448.653V140.455ZM460.39 139.78L476.435 186.326L478.326 185.674L462.281 139.129L460.39 139.78ZM477.381 185H466.835V187H477.381V185ZM467.786 185.691L456.127 149.782L454.225 150.4L465.884 186.309L467.786 185.691ZM455.176 149.091H454.812V151.091H455.176V149.091ZM453.862 149.782L442.18 185.691L444.082 186.309L455.763 150.4L453.862 149.782ZM442.472 168.705H467.381V166.705H442.472V168.705ZM466.381 167.705V175.386H468.381V167.705H466.381ZM467.381 174.386H442.472V176.386H467.381V174.386ZM443.472 175.386V167.705H441.472V175.386H443.472Z" fill="black"/>
</g>
<g id="&#195;&#135;A ou &#195;&#135;A_2" filter="url(#filter67_b_0_1)">
<path d="M225.114 155.75H215.159C214.977 154.462 214.606 153.318 214.045 152.318C213.485 151.303 212.765 150.439 211.886 149.727C211.008 149.015 209.992 148.47 208.841 148.091C207.705 147.712 206.47 147.523 205.136 147.523C202.727 147.523 200.629 148.121 198.841 149.318C197.053 150.5 195.667 152.227 194.682 154.5C193.697 156.758 193.205 159.5 193.205 162.727C193.205 166.045 193.697 168.833 194.682 171.091C195.682 173.348 197.076 175.053 198.864 176.205C200.652 177.356 202.72 177.932 205.068 177.932C206.386 177.932 207.606 177.758 208.727 177.409C209.864 177.061 210.871 176.553 211.75 175.886C212.629 175.205 213.356 174.379 213.932 173.409C214.523 172.439 214.932 171.333 215.159 170.091L225.114 170.136C224.856 172.273 224.212 174.333 223.182 176.318C222.167 178.288 220.795 180.053 219.068 181.614C217.356 183.159 215.311 184.386 212.932 185.295C210.568 186.189 207.894 186.636 204.909 186.636C200.758 186.636 197.045 185.697 193.773 183.818C190.515 181.939 187.939 179.22 186.045 175.659C184.167 172.098 183.227 167.788 183.227 162.727C183.227 157.652 184.182 153.333 186.091 149.773C188 146.212 190.591 143.5 193.864 141.636C197.136 139.758 200.818 138.818 204.909 138.818C207.606 138.818 210.106 139.197 212.409 139.955C214.727 140.712 216.78 141.818 218.568 143.273C220.356 144.712 221.811 146.477 222.932 148.568C224.068 150.659 224.795 153.053 225.114 155.75ZM202.477 185.864H206.932L206.568 187.841C208.129 188.083 209.402 188.667 210.386 189.591C211.386 190.515 211.894 191.773 211.909 193.364C211.924 195.621 210.879 197.417 208.773 198.75C206.667 200.098 203.712 200.773 199.909 200.773L199.818 196.455C201.727 196.455 203.22 196.22 204.295 195.75C205.386 195.295 205.955 194.583 206 193.614C206.03 192.689 205.674 191.985 204.932 191.5C204.189 191.015 203.03 190.674 201.455 190.477L202.477 185.864ZM239.318 186H228.773L244.841 139.455H257.523L273.568 186H263.023L251.364 150.091H251L239.318 186ZM238.659 167.705H263.568V175.386H238.659V167.705ZM309.574 186.682C306.044 186.682 302.991 185.932 300.415 184.432C297.854 182.917 295.877 180.811 294.483 178.114C293.089 175.402 292.392 172.258 292.392 168.682C292.392 165.076 293.089 161.924 294.483 159.227C295.877 156.515 297.854 154.409 300.415 152.909C302.991 151.394 306.044 150.636 309.574 150.636C313.104 150.636 316.15 151.394 318.71 152.909C321.286 154.409 323.271 156.515 324.665 159.227C326.059 161.924 326.756 165.076 326.756 168.682C326.756 172.258 326.059 175.402 324.665 178.114C323.271 180.811 321.286 182.917 318.71 184.432C316.15 185.932 313.104 186.682 309.574 186.682ZM309.619 179.182C311.225 179.182 312.566 178.727 313.642 177.818C314.718 176.894 315.528 175.636 316.074 174.045C316.634 172.455 316.915 170.644 316.915 168.614C316.915 166.583 316.634 164.773 316.074 163.182C315.528 161.591 314.718 160.333 313.642 159.409C312.566 158.485 311.225 158.023 309.619 158.023C307.998 158.023 306.634 158.485 305.528 159.409C304.438 160.333 303.612 161.591 303.051 163.182C302.506 164.773 302.233 166.583 302.233 168.614C302.233 170.644 302.506 172.455 303.051 174.045C303.612 175.636 304.438 176.894 305.528 177.818C306.634 178.727 307.998 179.182 309.619 179.182ZM355.438 171.136V151.091H365.119V186H355.824V179.659H355.46C354.672 181.705 353.362 183.348 351.528 184.591C349.71 185.833 347.491 186.455 344.869 186.455C342.536 186.455 340.483 185.924 338.71 184.864C336.938 183.803 335.551 182.295 334.551 180.341C333.566 178.386 333.066 176.045 333.051 173.318V151.091H342.733V171.591C342.748 173.652 343.301 175.28 344.392 176.477C345.483 177.674 346.945 178.273 348.778 178.273C349.945 178.273 351.036 178.008 352.051 177.477C353.066 176.932 353.884 176.129 354.506 175.068C355.142 174.008 355.453 172.697 355.438 171.136ZM428.926 155.75H418.972C418.79 154.462 418.419 153.318 417.858 152.318C417.297 151.303 416.578 150.439 415.699 149.727C414.82 149.015 413.805 148.47 412.653 148.091C411.517 147.712 410.282 147.523 408.949 147.523C406.54 147.523 404.441 148.121 402.653 149.318C400.866 150.5 399.479 152.227 398.494 154.5C397.509 156.758 397.017 159.5 397.017 162.727C397.017 166.045 397.509 168.833 398.494 171.091C399.494 173.348 400.888 175.053 402.676 176.205C404.464 177.356 406.532 177.932 408.881 177.932C410.199 177.932 411.419 177.758 412.54 177.409C413.676 177.061 414.684 176.553 415.562 175.886C416.441 175.205 417.169 174.379 417.744 173.409C418.335 172.439 418.744 171.333 418.972 170.091L428.926 170.136C428.669 172.273 428.025 174.333 426.994 176.318C425.979 178.288 424.608 180.053 422.881 181.614C421.169 183.159 419.123 184.386 416.744 185.295C414.381 186.189 411.706 186.636 408.722 186.636C404.57 186.636 400.858 185.697 397.585 183.818C394.328 181.939 391.752 179.22 389.858 175.659C387.979 172.098 387.04 167.788 387.04 162.727C387.04 157.652 387.994 153.333 389.903 149.773C391.813 146.212 394.403 143.5 397.676 141.636C400.949 139.758 404.631 138.818 408.722 138.818C411.419 138.818 413.919 139.197 416.222 139.955C418.54 140.712 420.593 141.818 422.381 143.273C424.169 144.712 425.623 146.477 426.744 148.568C427.881 150.659 428.608 153.053 428.926 155.75ZM406.29 185.864H410.744L410.381 187.841C411.941 188.083 413.214 188.667 414.199 189.591C415.199 190.515 415.706 191.773 415.722 193.364C415.737 195.621 414.691 197.417 412.585 198.75C410.479 200.098 407.525 200.773 403.722 200.773L403.631 196.455C405.54 196.455 407.032 196.22 408.108 195.75C409.199 195.295 409.767 194.583 409.812 193.614C409.843 192.689 409.487 191.985 408.744 191.5C408.002 191.015 406.843 190.674 405.267 190.477L406.29 185.864ZM443.131 186H432.585L448.653 139.455H461.335L477.381 186H466.835L455.176 150.091H454.812L443.131 186ZM442.472 167.705H467.381V175.386H442.472V167.705Z" fill="#FCD53E"/>
</g>
</g>
</g>
<defs>
<filter id="filter0_f_0_1" x="314" y="77" width="34" height="34" filterUnits="userSpaceOnUse" color-interpolation-filters="sRGB">
<feFlood flood-opacity="0" result="BackgroundImageFix"/>
<feBlend mode="normal" in="SourceGraphic" in2="BackgroundImageFix" result="shape"/>
<feGaussianBlur stdDeviation="2" result="effect1_foregroundBlur_0_1"/>
</filter>
<filter id="filter1_f_0_1" x="320" y="83" width="22" height="22" filterUnits="userSpaceOnUse" color-interpolation-filters="sRGB">
<feFlood flood-opacity="0" result="BackgroundImageFix"/>
<feBlend mode="normal" in="SourceGraphic" in2="BackgroundImageFix" result="shape"/>
<feGaussianBlur stdDeviation="0.5" result="effect1_foregroundBlur_0_1"/>
</filter>
<filter id="filter2_f_0_1" x="278" y="77" width="34" height="34" filterUnits="userSpaceOnUse" color-interpolation-filters="sRGB">
<feFlood flood-opacity="0" result="BackgroundImageFix"/>
<feBlend mode="normal" in="SourceGraphic" in2="BackgroundImageFix" result="shape"/>
<feGaussianBlur stdDeviation="2" result="effect1_foregroundBlur_0_1"/>
</filter>
<filter id="filter3_f_0_1" x="284" y="83" width="22" height="22" filterUnits="userSpaceOnUse" color-interpolation-filters="sRGB">
<feFlood flood-opacity="0" result="BackgroundImageFix"/>
<feBlend mode="normal" in="SourceGraphic" in2="BackgroundImageFix" result="shape"/>
<feGaussianBlur stdDeviation="0.5" result="effect1_foregroundBlur_0_1"/>
</filter>
<filter id="filter4_f_0_1" x="314" y="77" width="34" height="34" filterUnits="userSpaceOnUse" color-interpolation-filters="sRGB">
<feFlood flood-opacity="0" result="BackgroundImageFix"/>
<feBlend mode="normal" in="SourceGraphic" in2="BackgroundImageFix" result="shape"/>
<feGaussianBlur stdDeviation="2" result="effect1_foregroundBlur_0_1"/>
</filter>
<filter id="filter5_f_0_1" x="320" y="83" width="22" height="22" filterUnits="userSpaceOnUse" color-interpolation-filters="sRGB">
<feFlood flood-opacity="0" result="BackgroundImageFix"/>
<feBlend mode="normal" in="SourceGraphic" in2="BackgroundImageFix" result="shape"/>
<feGaussianBlur stdDeviation="0.5" result="effect1_foregroundBlur_0_1"/>
</filter>
<filter id="filter6_f_0_1" x="350" y="77" width="34" height="34" filterUnits="userSpaceOnUse" color-interpolation-filters="sRGB">
<feFlood flood-opacity="0" result="BackgroundImageFix"/>
<feBlend mode="normal" in="SourceGraphic" in2="BackgroundImageFix" result="shape"/>
<feGaussianBlur stdDeviation="2" result="effect1_foregroundBlur_0_1"/>
</filter>
<filter id="filter7_f_0_1" x="356" y="83" width="22" height="22" filterUnits="userSpaceOnUse" color-interpolation-filters="sRGB">
<feFlood flood-opacity="0" result="BackgroundImageFix"/>
<feBlend mode="normal" in="SourceGraphic" in2="BackgroundImageFix" result="shape"/>
<feGaussianBlur stdDeviation="0.5" result="effect1_foregroundBlur_0_1"/>
</filter>
<filter id="filter8_f_0_1" x="386" y="77" width="34" height="34" filterUnits="userSpaceOnUse" color-interpolation-filters="sRGB">
<feFlood flood-opacity="0" result="BackgroundImageFix"/>
<feBlend mode="normal" in="SourceGraphic" in2="BackgroundImageFix" result="shape"/>
<feGaussianBlur stdDeviation="2" result="effect1_foregroundBlur_0_1"/>
</filter>
<filter id="filter9_f_0_1" x="392" y="83" width="22" height="22" filterUnits="userSpaceOnUse" color-interpolation-filters="sRGB">
<feFlood flood-opacity="0" result="BackgroundImageFix"/>
<feBlend mode="normal" in="SourceGraphic" in2="BackgroundImageFix" result="shape"/>
<feGaussianBlur stdDeviation="0.5" result="effect1_foregroundBlur_0_1"/>
</filter>
<filter id="filter10_f_0_1" x="422" y="77" width="34" height="34" filterUnits="userSpaceOnUse" color-interpolation-filters="sRGB">
<feFlood flood-opacity="0" result="BackgroundImageFix"/>
<feBlend mode="normal" in="SourceGraphic" in2="BackgroundImageFix" result="shape"/>
<feGaussianBlur stdDeviation="2" result="effect1_foregroundBlur_0_1"/>
</filter>
<filter id="filter11_f_0_1" x="428" y="83" width="22" height="22" filterUnits="userSpaceOnUse" color-interpolation-filters="sRGB">
<feFlood flood-opacity="0" result="BackgroundImageFix"/>
<feBlend mode="normal" in="SourceGraphic" in2="BackgroundImageFix" result="shape"/>
<feGaussianBlur stdDeviation="0.5" result="effect1_foregroundBlur_0_1"/>
</filter>
<filter id="filter12_f_0_1" x="458" y="77" width="34" height="34" filterUnits="userSpaceOnUse" color-interpolation-filters="sRGB">
<feFlood flood-opacity="0" result="BackgroundImageFix"/>
<feBlend mode="normal" in="SourceGraphic" in2="BackgroundImageFix" result="shape"/>
<feGaussianBlur stdDeviation="2" result="effect1_foregroundBlur_0_1"/>
</filter>
<filter id="filter13_f_0_1" x="464" y="83" width="22" height="22" filterUnits="userSpaceOnUse" color-interpolation-filters="sRGB">
<feFlood flood-opacity="0" result="BackgroundImageFix"/>
<feBlend mode="normal" in="SourceGraphic" in2="BackgroundImageFix" result="shape"/>
<feGaussianBlur stdDeviation="0.5" result="effect1_foregroundBlur_0_1"/>
</filter>
<filter id="filter14_f_0_1" x="494" y="77" width="34" height="34" filterUnits="userSpaceOnUse" color-interpolation-filters="sRGB">
<feFlood flood-opacity="0" result="BackgroundImageFix"/>
<feBlend mode="normal" in="SourceGraphic" in2="BackgroundImageFix" result="shape"/>
<feGaussianBlur stdDeviation="2" result="effect1_foregroundBlur_0_1"/>
</filter>
<filter id="filter15_f_0_1" x="500" y="83" width="22" height="22" filterUnits="userSpaceOnUse" color-interpolation-filters="sRGB">
<feFlood flood-opacity="0" result="BackgroundImageFix"/>
<feBlend mode="normal" in="SourceGraphic" in2="BackgroundImageFix" result="shape"/>
<feGaussianBlur stdDeviation="0.5" result="effect1_foregroundBlur_0_1"/>
</filter>
<filter id="filter16_f_0_1" x="530" y="77" width="34" height="34" filterUnits="userSpaceOnUse" color-interpolation-filters="sRGB">
<feFlood flood-opacity="0" result="BackgroundImageFix"/>
<feBlend mode="normal" in="SourceGraphic" in2="BackgroundImageFix" result="shape"/>
<feGaussianBlur stdDeviation="2" result="effect1_foregroundBlur_0_1"/>
</filter>
<filter id="filter17_f_0_1" x="536" y="83" width="22" height="22" filterUnits="userSpaceOnUse" color-interpolation-filters="sRGB">
<feFlood flood-opacity="0" result="BackgroundImageFix"/>
<feBlend mode="normal" in="SourceGraphic" in2="BackgroundImageFix" result="shape"/>
<feGaussianBlur stdDeviation="0.5" result="effect1_foregroundBlur_0_1"/>
</filter>
<filter id="filter18_f_0_1" x="134" y="77" width="34" height="34" filterUnits="userSpaceOnUse" color-interpolation-filters="sRGB">
<feFlood flood-opacity="0" result="BackgroundImageFix"/>
<feBlend mode="normal" in="SourceGraphic" in2="BackgroundImageFix" result="shape"/>
<feGaussianBlur stdDeviation="2" result="effect1_foregroundBlur_0_1"/>
</filter>
<filter id="filter19_f_0_1" x="140" y="83" width="22" height="22" filterUnits="userSpaceOnUse" color-interpolation-filters="sRGB">
<feFlood flood-opacity="0" result="BackgroundImageFix"/>
<feBlend mode="normal" in="SourceGraphic" in2="BackgroundImageFix" result="shape"/>
<feGaussianBlur stdDeviation="0.5" result="effect1_foregroundBlur_0_1"/>
</filter>
<filter id="filter20_f_0_1" x="170" y="77" width="34" height="34" filterUnits="userSpaceOnUse" color-interpolation-filters="sRGB">
<feFlood flood-opacity="0" result="BackgroundImageFix"/>
<feBlend mode="normal" in="SourceGraphic" in2="BackgroundImageFix" result="shape"/>
<feGaussianBlur stdDeviation="2" result="effect1_foregroundBlur_0_1"/>
</filter>
<filter id="filter21_f_0_1" x="176" y="83" width="22" height="22" filterUnits="userSpaceOnUse" color-interpolation-filters="sRGB">
<feFlood flood-opacity="0" result="BackgroundImageFix"/>
<feBlend mode="normal" in="SourceGraphic" in2="BackgroundImageFix" result="shape"/>
<feGaussianBlur stdDeviation="0.5" result="effect1_foregroundBlur_0_1"/>
</filter>
<filter id="filter22_f_0_1" x="98" y="77" width="34" height="34" filterUnits="userSpaceOnUse" color-interpolation-filters="sRGB">
<feFlood flood-opacity="0" result="BackgroundImageFix"/>
<feBlend mode="normal" in="SourceGraphic" in2="BackgroundImageFix" result="shape"/>
<feGaussianBlur stdDeviation="2" result="effect1_foregroundBlur_0_1"/>
</filter>
<filter id="filter23_f_0_1" x="104" y="83" width="22" height="22" filterUnits="userSpaceOnUse" color-interpolation-filters="sRGB">
<feFlood flood-opacity="0" result="BackgroundImageFix"/>
<feBlend mode="normal" in="SourceGraphic" in2="BackgroundImageFix" result="shape"/>
<feGaussianBlur stdDeviation="0.5" result="effect1_foregroundBlur_0_1"/>
</filter>
<filter id="filter24_f_0_1" x="98" y="115" width="34" height="34" filterUnits="userSpaceOnUse" color-interpolation-filters="sRGB">
<feFlood flood-opacity="0" result="BackgroundImageFix"/>
<feBlend mode="normal" in="SourceGraphic" in2="BackgroundImageFix" result="shape"/>
<feGaussianBlur stdDeviation="2" result="effect1_foregroundBlur_0_1"/>
</filter>
<filter id="filter25_f_0_1" x="104" y="121" width="22" height="22" filterUnits="userSpaceOnUse" color-interpolation-filters="sRGB">
<feFlood flood-opacity="0" result="BackgroundImageFix"/>
<feBlend mode="normal" in="SourceGraphic" in2="BackgroundImageFix" result="shape"/>
<feGaussianBlur stdDeviation="0.5" result="effect1_foregroundBlur_0_1"/>
</filter>
<filter id="filter26_f_0_1" x="98" y="150" width="34" height="34" filterUnits="userSpaceOnUse" color-interpolation-filters="sRGB">
<feFlood flood-opacity="0" result="BackgroundImageFix"/>
<feBlend mode="normal" in="SourceGraphic" in2="BackgroundImageFix" result="shape"/>
<feGaussianBlur stdDeviation="2" result="effect1_foregroundBlur_0_1"/>
</filter>
<filter id="filter27_f_0_1" x="104" y="156" width="22" height="22" filterUnits="userSpaceOnUse" color-interpolation-filters="sRGB">
<feFlood flood-opacity="0" result="BackgroundImageFix"/>
<feBlend mode="normal" in="SourceGraphic" in2="BackgroundImageFix" result="shape"/>
<feGaussianBlur stdDeviation="0.5" result="effect1_foregroundBlur_0_1"/>
</filter>
<filter id="filter28_f_0_1" x="98" y="185" width="34" height="34" filterUnits="userSpaceOnUse" color-interpolation-filters="sRGB">
<feFlood flood-opacity="0" result="BackgroundImageFix"/>
<feBlend mode="normal" in="SourceGraphic" in2="BackgroundImageFix" result="shape"/>
<feGaussianBlur stdDeviation="2" result="effect1_foregroundBlur_0_1"/>
</filter>
<filter id="filter29_f_0_1" x="104" y="191" width="22" height="22" filterUnits="userSpaceOnUse" color-interpolation-filters="sRGB">
<feFlood flood-opacity="0" result="BackgroundImageFix"/>
<feBlend mode="normal" in="SourceGraphic" in2="BackgroundImageFix" result="shape"/>
<feGaussianBlur stdDeviation="0.5" result="effect1_foregroundBlur_0_1"/>
</filter>
<filter id="filter30_f_0_1" x="98" y="223" width="34" height="34" filterUnits="userSpaceOnUse" color-interpolation-filters="sRGB">
<feFlood flood-opacity="0" result="BackgroundImageFix"/>
<feBlend mode="normal" in="SourceGraphic" in2="BackgroundImageFix" result="shape"/>
<feGaussianBlur stdDeviation="2" result="effect1_foregroundBlur_0_1"/>
</filter>
<filter id="filter31_f_0_1" x="104" y="229" width="22" height="22" filterUnits="userSpaceOnUse" color-interpolation-filters="sRGB">
<feFlood flood-opacity="0" result="BackgroundImageFix"/>
<feBlend mode="normal" in="SourceGraphic" in2="BackgroundImageFix" result="shape"/>
<feGaussianBlur stdDeviation="0.5" result="effect1_foregroundBlur_0_1"/>
</filter>
<filter id="filter32_f_0_1" x="530" y="115" width="34" height="34" filterUnits="userSpaceOnUse" color-interpolation-filters="sRGB">
<feFlood flood-opacity="0" result="BackgroundImageFix"/>
<feBlend mode="normal" in="SourceGraphic" in2="BackgroundImageFix" result="shape"/>
<feGaussianBlur stdDeviation="2" result="effect1_foregroundBlur_0_1"/>
</filter>
<filter id="filter33_f_0_1" x="536" y="121" width="22" height="22" filterUnits="userSpaceOnUse" color-interpolation-filters="sRGB">
<feFlood flood-opacity="0" result="BackgroundImageFix"/>
<feBlend mode="normal" in="SourceGraphic" in2="BackgroundImageFix" result="shape"/>
<feGaussianBlur stdDeviation="0.5" result="effect1_foregroundBlur_0_1"/>
</filter>
<filter id="filter34_f_0_1" x="530" y="150" width="34" height="34" filterUnits="userSpaceOnUse" color-interpolation-filters="sRGB">
<feFlood flood-opacity="0" result="BackgroundImageFix"/>
<feBlend mode="normal" in="SourceGraphic" in2="BackgroundImageFix" result="shape"/>
<feGaussianBlur stdDeviation="2" result="effect1_foregroundBlur_0_1"/>
</filter>
<filter id="filter35_f_0_1" x="536" y="156" width="22" height="22" filterUnits="userSpaceOnUse" color-interpolation-filters="sRGB">
<feFlood flood-opacity="0" result="BackgroundImageFix"/>
<feBlend mode="normal" in="SourceGraphic" in2="BackgroundImageFix" result="shape"/>
<feGaussianBlur stdDeviation="0.5" result="effect1_foregroundBlur_0_1"/>
</filter>
<filter id="filter36_f_0_1" x="530" y="185" width="34" height="34" filterUnits="userSpaceOnUse" color-interpolation-filters="sRGB">
<feFlood flood-opacity="0" result="BackgroundImageFix"/>
<feBlend mode="normal" in="SourceGraphic" in2="BackgroundImageFix" result="shape"/>
<feGaussianBlur stdDeviation="2" result="effect1_foregroundBlur_0_1"/>
</filter>
<filter id="filter37_f_0_1" x="536" y="191" width="22" height="22" filterUnits="userSpaceOnUse" color-interpolation-filters="sRGB">
<feFlood flood-opacity="0" result="BackgroundImageFix"/>
<feBlend mode="normal" in="SourceGraphic" in2="BackgroundImageFix" result="shape"/>
<feGaussianBlur stdDeviation="0.5" result="effect1_foregroundBlur_0_1"/>
</filter>
<filter id="filter38_f_0_1" x="530" y="223" width="34" height="34" filterUnits="userSpaceOnUse" color-interpolation-filters="sRGB">
<feFlood flood-opacity="0" result="BackgroundImageFix"/>
<feBlend mode="normal" in="SourceGraphic" in2="BackgroundImageFix" result="shape"/>
<feGaussianBlur stdDeviation="2" result="effect1_foregroundBlur_0_1"/>
</filter>
<filter id="filter39_f_0_1" x="536" y="229" width="22" height="22" filterUnits="userSpaceOnUse" color-interpolation-filters="sRGB">
<feFlood flood-opacity="0" result="BackgroundImageFix"/>
<feBlend mode="normal" in="SourceGraphic" in2="BackgroundImageFix" result="shape"/>
<feGaussianBlur stdDeviation="0.5" result="effect1_foregroundBlur_0_1"/>
</filter>
<filter id="filter40_f_0_1" x="206" y="77" width="34" height="34" filterUnits="userSpaceOnUse" color-interpolation-filters="sRGB">
<feFlood flood-opacity="0" result="BackgroundImageFix"/>
<feBlend mode="normal" in="SourceGraphic" in2="BackgroundImageFix" result="shape"/>
<feGaussianBlur stdDeviation="2" result="effect1_foregroundBlur_0_1"/>
</filter>
<filter id="filter41_f_0_1" x="212" y="83" width="22" height="22" filterUnits="userSpaceOnUse" color-interpolation-filters="sRGB">
<feFlood flood-opacity="0" result="BackgroundImageFix"/>
<feBlend mode="normal" in="SourceGraphic" in2="BackgroundImageFix" result="shape"/>
<feGaussianBlur stdDeviation="0.5" result="effect1_foregroundBlur_0_1"/>
</filter>
<filter id="filter42_f_0_1" x="242" y="77" width="34" height="34" filterUnits="userSpaceOnUse" color-interpolation-filters="sRGB">
<feFlood flood-opacity="0" result="BackgroundImageFix"/>
<feBlend mode="normal" in="SourceGraphic" in2="BackgroundImageFix" result="shape"/>
<feGaussianBlur stdDeviation="2" result="effect1_foregroundBlur_0_1"/>
</filter>
<filter id="filter43_f_0_1" x="248" y="83" width="22" height="22" filterUnits="userSpaceOnUse" color-interpolation-filters="sRGB">
<feFlood flood-opacity="0" result="BackgroundImageFix"/>
<feBlend mode="normal" in="SourceGraphic" in2="BackgroundImageFix" result="shape"/>
<feGaussianBlur stdDeviation="0.5" result="effect1_foregroundBlur_0_1"/>
</filter>
<filter id="filter44_f_0_1" x="278" y="223" width="34" height="34" filterUnits="userSpaceOnUse" color-interpolation-filters="sRGB">
<feFlood flood-opacity="0" result="BackgroundImageFix"/>
<feBlend mode="normal" in="SourceGraphic" in2="BackgroundImageFix" result="shape"/>
<feGaussianBlur stdDeviation="2" result="effect1_foregroundBlur_0_1"/>
</filter>
<filter id="filter45_f_0_1" x="284" y="229" width="22" height="22" filterUnits="userSpaceOnUse" color-interpolation-filters="sRGB">
<feFlood flood-opacity="0" result="BackgroundImageFix"/>
<feBlend mode="normal" in="SourceGraphic" in2="BackgroundImageFix" result="shape"/>
<feGaussianBlur stdDeviation="0.5" result="effect1_foregroundBlur_0_1"/>
</filter>
<filter id="filter46_f_0_1" x="314" y="223" width="34" height="34" filterUnits="userSpaceOnUse" color-interpolation-filters="sRGB">
<feFlood flood-opacity="0" result="BackgroundImageFix"/>
<feBlend mode="normal" in="SourceGraphic" in2="BackgroundImageFix" result="shape"/>
<feGaussianBlur stdDeviation="2" result="effect1_foregroundBlur_0_1"/>
</filter>
<filter id="filter47_f_0_1" x="320" y="229" width="22" height="22" filterUnits="userSpaceOnUse" color-interpolation-filters="sRGB">
<feFlood flood-opacity="0" result="BackgroundImageFix"/>
<feBlend mode="normal" in="SourceGraphic" in2="BackgroundImageFix" result="shape"/>
<feGaussianBlur stdDeviation="0.5" result="effect1_foregroundBlur_0_1"/>
</filter>
<filter id="filter48_f_0_1" x="350" y="223" width="34" height="34" filterUnits="userSpaceOnUse" color-interpolation-filters="sRGB">
<feFlood flood-opacity="0" result="BackgroundImageFix"/>
<feBlend mode="normal" in="SourceGraphic" in2="BackgroundImageFix" result="shape"/>
<feGaussianBlur stdDeviation="2" result="effect1_foregroundBlur_0_1"/>
</filter>
<filter id="filter49_f_0_1" x="356" y="229" width="22" height="22" filterUnits="userSpaceOnUse" color-interpolation-filters="sRGB">
<feFlood flood-opacity="0" result="BackgroundImageFix"/>
<feBlend mode="normal" in="SourceGraphic" in2="BackgroundImageFix" result="shape"/>
<feGaussianBlur stdDeviation="0.5" result="effect1_foregroundBlur_0_1"/>
</filter>
<filter id="filter50_f_0_1" x="386" y="223" width="34" height="34" filterUnits="userSpaceOnUse" color-interpolation-filters="sRGB">
<feFlood flood-opacity="0" result="BackgroundImageFix"/>
<feBlend mode="normal" in="SourceGraphic" in2="BackgroundImageFix" result="shape"/>
<feGaussianBlur stdDeviation="2" result="effect1_foregroundBlur_0_1"/>
</filter>
<filter id="filter51_f_0_1" x="392" y="229" width="22" height="22" filterUnits="userSpaceOnUse" color-interpolation-filters="sRGB">
<feFlood flood-opacity="0" result="BackgroundImageFix"/>
<feBlend mode="normal" in="SourceGraphic" in2="BackgroundImageFix" result="shape"/>
<feGaussianBlur stdDeviation="0.5" result="effect1_foregroundBlur_0_1"/>
</filter>
<filter id="filter52_f_0_1" x="422" y="223" width="34" height="34" filterUnits="userSpaceOnUse" color-interpolation-filters="sRGB">
<feFlood flood-opacity="0" result="BackgroundImageFix"/>
<feBlend mode="normal" in="SourceGraphic" in2="BackgroundImageFix" result="shape"/>
<feGaussianBlur stdDeviation="2" result="effect1_foregroundBlur_0_1"/>
</filter>
<filter id="filter53_f_0_1" x="428" y="229" width="22" height="22" filterUnits="userSpaceOnUse" color-interpolation-filters="sRGB">
<feFlood flood-opacity="0" result="BackgroundImageFix"/>
<feBlend mode="normal" in="SourceGraphic" in2="BackgroundImageFix" result="shape"/>
<feGaussianBlur stdDeviation="0.5" result="effect1_foregroundBlur_0_1"/>
</filter>
<filter id="filter54_f_0_1" x="458" y="223" width="34" height="34" filterUnits="userSpaceOnUse" color-interpolation-filters="sRGB">
<feFlood flood-opacity="0" result="BackgroundImageFix"/>
<feBlend mode="normal" in="SourceGraphic" in2="BackgroundImageFix" result="shape"/>
<feGaussianBlur stdDeviation="2" result="effect1_foregroundBlur_0_1"/>
</filter>
<filter id="filter55_f_0_1" x="464" y="229" width="22" height="22" filterUnits="userSpaceOnUse" color-interpolation-filters="sRGB">
<feFlood flood-opacity="0" result="BackgroundImageFix"/>
<feBlend mode="normal" in="SourceGraphic" in2="BackgroundImageFix" result="shape"/>
<feGaussianBlur stdDeviation="0.5" result="effect1_foregroundBlur_0_1"/>
</filter>
<filter id="filter56_f_0_1" x="494" y="223" width="34" height="34" filterUnits="userSpaceOnUse" color-interpolation-filters="sRGB">
<feFlood flood-opacity="0" result="BackgroundImageFix"/>
<feBlend mode="normal" in="SourceGraphic" in2="BackgroundImageFix" result="shape"/>
<feGaussianBlur stdDeviation="2" result="effect1_foregroundBlur_0_1"/>
</filter>
<filter id="filter57_f_0_1" x="500" y="229" width="22" height="22" filterUnits="userSpaceOnUse" color-interpolation-filters="sRGB">
<feFlood flood-opacity="0" result="BackgroundImageFix"/>
<feBlend mode="normal" in="SourceGraphic" in2="BackgroundImageFix" result="shape"/>
<feGaussianBlur stdDeviation="0.5" result="effect1_foregroundBlur_0_1"/>
</filter>
<filter id="filter58_f_0_1" x="134" y="223" width="34" height="34" filterUnits="userSpaceOnUse" color-interpolation-filters="sRGB">
<feFlood flood-opacity="0" result="BackgroundImageFix"/>
<feBlend mode="normal" in="SourceGraphic" in2="BackgroundImageFix" result="shape"/>
<feGaussianBlur stdDeviation="2" result="effect1_foregroundBlur_0_1"/>
</filter>
<filter id="filter59_f_0_1" x="140" y="229" width="22" height="22" filterUnits="userSpaceOnUse" color-interpolation-filters="sRGB">
<feFlood flood-opacity="0" result="BackgroundImageFix"/>
<feBlend mode="normal" in="SourceGraphic" in2="BackgroundImageFix" result="shape"/>
<feGaussianBlur stdDeviation="0.5" result="effect1_foregroundBlur_0_1"/>
</filter>
<filter id="filter60_f_0_1" x="170" y="223" width="34" height="34" filterUnits="userSpaceOnUse" color-interpolation-filters="sRGB">
<feFlood flood-opacity="0" result="BackgroundImageFix"/>
<feBlend mode="normal" in="SourceGraphic" in2="BackgroundImageFix" result="shape"/>
<feGaussianBlur stdDeviation="2" result="effect1_foregroundBlur_0_1"/>
</filter>
<filter id="filter61_f_0_1" x="176" y="229" width="22" height="22" filterUnits="userSpaceOnUse" color-interpolation-filters="sRGB">
<feFlood flood-opacity="0" result="BackgroundImageFix"/>
<feBlend mode="normal" in="SourceGraphic" in2="BackgroundImageFix" result="shape"/>
<feGaussianBlur stdDeviation="0.5" result="effect1_foregroundBlur_0_1"/>
</filter>
<filter id="filter62_f_0_1" x="206" y="223" width="34" height="34" filterUnits="userSpaceOnUse" color-interpolation-filters="sRGB">
<feFlood flood-opacity="0" result="BackgroundImageFix"/>
<feBlend mode="normal" in="SourceGraphic" in2="BackgroundImageFix" result="shape"/>
<feGaussianBlur stdDeviation="2" result="effect1_foregroundBlur_0_1"/>
</filter>
<filter id="filter63_f_0_1" x="212" y="229" width="22" height="22" filterUnits="userSpaceOnUse" color-interpolation-filters="sRGB">
<feFlood flood-opacity="0" result="BackgroundImageFix"/>
<feBlend mode="normal" in="SourceGraphic" in2="BackgroundImageFix" result="shape"/>
<feGaussianBlur stdDeviation="0.5" result="effect1_foregroundBlur_0_1"/>
</filter>
<filter id="filter64_f_0_1" x="242" y="223" width="34" height="34" filterUnits="userSpaceOnUse" color-interpolation-filters="sRGB">
<feFlood flood-opacity="0" result="BackgroundImageFix"/>
<feBlend mode="normal" in="SourceGraphic" in2="BackgroundImageFix" result="shape"/>
<feGaussianBlur stdDeviation="2" result="effect1_foregroundBlur_0_1"/>
</filter>
<filter id="filter65_f_0_1" x="248" y="229" width="22" height="22" filterUnits="userSpaceOnUse" color-interpolation-filters="sRGB">
<feFlood flood-opacity="0" result="BackgroundImageFix"/>
<feBlend mode="normal" in="SourceGraphic" in2="BackgroundImageFix" result="shape"/>
<feGaussianBlur stdDeviation="0.5" result="effect1_foregroundBlur_0_1"/>
</filter>
<filter id="filter66_f_0_1" x="173.227" y="128.818" width="314.153" height="81.9546" filterUnits="userSpaceOnUse" color-interpolation-filters="sRGB">
<feFlood flood-opacity="0" result="BackgroundImageFix"/>
<feBlend mode="normal" in="SourceGraphic" in2="BackgroundImageFix" result="shape"/>
<feGaussianBlur stdDeviation="5" result="effect1_foregroundBlur_0_1"/>
</filter>
<filter id="filter67_b_0_1" x="173.227" y="128.818" width="314.153" height="81.9546" filterUnits="userSpaceOnUse" color-interpolation-filters="sRGB">
<feFlood flood-opacity="0" result="BackgroundImageFix"/>
<feGaussianBlur in="BackgroundImage" stdDeviation="5"/>
<feComposite in2="SourceAlpha" operator="in" result="effect1_backgroundBlur_0_1"/>
<feBlend mode="normal" in="SourceGraphic" in2="effect1_backgroundBlur_0_1" result="shape"/>
</filter>
</defs>
</svg>
