<svg width="664" height="331" viewBox="0 0 664 331" fill="none" xmlns="http://www.w3.org/2000/svg">
<g id="Frame 1">
<g id="Group 1">
<g id="buble1">
<g id="Ellipse 3" filter="url(#filter0_f_0_1)">
<circle cx="331" cy="94" r="13" fill="#F3C409"/>
</g>
<g id="Ellipse 2" filter="url(#filter1_f_0_1)">
<circle cx="331" cy="94" r="10" fill="#FFE373"/>
</g>
</g>
<g id="buble1_2">
<g id="Ellipse 3_2" filter="url(#filter2_f_0_1)">
<circle cx="295" cy="94" r="13" fill="#F3C409"/>
</g>
<g id="Ellipse 2_2" filter="url(#filter3_f_0_1)">
<circle cx="295" cy="94" r="10" fill="#FFE373"/>
</g>
</g>
<g id="buble1_3">
<g id="Ellipse 3_3" filter="url(#filter4_f_0_1)">
<circle cx="331" cy="94" r="13" fill="#F3C409"/>
</g>
<g id="Ellipse 2_3" filter="url(#filter5_f_0_1)">
<circle cx="331" cy="94" r="10" fill="#FFE373"/>
</g>
</g>
<g id="buble1_4">
<g id="Ellipse 3_4" filter="url(#filter6_f_0_1)">
<circle cx="367" cy="94" r="13" fill="#F3C409"/>
</g>
<g id="Ellipse 2_4" filter="url(#filter7_f_0_1)">
<circle cx="367" cy="94" r="10" fill="#FFE373"/>
</g>
</g>
<g id="buble1_5">
<g id="Ellipse 3_5" filter="url(#filter8_f_0_1)">
<circle cx="403" cy="94" r="13" fill="#F3C409"/>
</g>
<g id="Ellipse 2_5" filter="url(#filter9_f_0_1)">
<circle cx="403" cy="94" r="10" fill="#FFE373"/>
</g>
</g>
<g id="buble1_6">
<g id="Ellipse 3_6" filter="url(#filter10_f_0_1)">
<circle cx="439" cy="94" r="13" fill="#F3C409"/>
</g>
<g id="Ellipse 2_6" filter="url(#filter11_f_0_1)">
<circle cx="439" cy="94" r="10" fill="#FFE373"/>
</g>
</g>
<g id="buble1_7">
<g id="Ellipse 3_7" filter="url(#filter12_f_0_1)">
<circle cx="475" cy="94" r="13" fill="#F3C409"/>
</g>
<g id="Ellipse 2_7" filter="url(#filter13_f_0_1)">
<circle cx="475" cy="94" r="10" fill="#FFE373"/>
</g>
</g>
<g id="buble1_8">
<g id="Ellipse 3_8" filter="url(#filter14_f_0_1)">
<circle cx="511" cy="94" r="13" fill="#F3C409"/>
</g>
<g id="Ellipse 2_8" filter="url(#filter15_f_0_1)">
<circle cx="511" cy="94" r="10" fill="#FFE373"/>
</g>
</g>
<g id="buble1_9">
<g id="Ellipse 3_9" filter="url(#filter16_f_0_1)">
<circle cx="547" cy="94" r="13" fill="#F3C409"/>
</g>
<g id="Ellipse 2_9" filter="url(#filter17_f_0_1)">
<circle cx="547" cy="94" r="10" fill="#FFE373"/>
</g>
</g>
<g id="buble1_10">
<g id="Ellipse 3_10" filter="url(#filter18_f_0_1)">
<circle cx="151" cy="94" r="13" fill="#F3C409"/>
</g>
<g id="Ellipse 2_10" filter="url(#filter19_f_0_1)">
<circle cx="151" cy="94" r="10" fill="#FFE373"/>
</g>
</g>
<g id="buble1_11">
<g id="Ellipse 3_11" filter="url(#filter20_f_0_1)">
<circle cx="187" cy="94" r="13" fill="#F3C409"/>
</g>
<g id="Ellipse 2_11" filter="url(#filter21_f_0_1)">
<circle cx="187" cy="94" r="10" fill="#FFE373"/>
</g>
</g>
<g id="buble1_12">
<g id="Ellipse 3_12" filter="url(#filter22_f_0_1)">
<circle cx="115" cy="94" r="13" fill="#F3C409"/>
</g>
<g id="Ellipse 2_12" filter="url(#filter23_f_0_1)">
<circle cx="115" cy="94" r="10" fill="#FFE373"/>
</g>
</g>
<g id="buble1_13">
<g id="Ellipse 3_13" filter="url(#filter24_f_0_1)">
<circle cx="115" cy="132" r="13" fill="#F3C409"/>
</g>
<g id="Ellipse 2_13" filter="url(#filter25_f_0_1)">
<circle cx="115" cy="132" r="10" fill="#FFE373"/>
</g>
</g>
<g id="buble1_14">
<g id="Ellipse 3_14" filter="url(#filter26_f_0_1)">
<circle cx="115" cy="167" r="13" fill="#F3C409"/>
</g>
<g id="Ellipse 2_14" filter="url(#filter27_f_0_1)">
<circle cx="115" cy="167" r="10" fill="#FFE373"/>
</g>
</g>
<g id="buble1_15">
<g id="Ellipse 3_15" filter="url(#filter28_f_0_1)">
<circle cx="115" cy="202" r="13" fill="#F3C409"/>
</g>
<g id="Ellipse 2_15" filter="url(#filter29_f_0_1)">
<circle cx="115" cy="202" r="10" fill="#FFE373"/>
</g>
</g>
<g id="buble1_16">
<g id="Ellipse 3_16" filter="url(#filter30_f_0_1)">
<circle cx="115" cy="240" r="13" fill="#F3C409"/>
</g>
<g id="Ellipse 2_16" filter="url(#filter31_f_0_1)">
<circle cx="115" cy="240" r="10" fill="#FFE373"/>
</g>
</g>
<g id="buble1_17">
<g id="Ellipse 3_17" filter="url(#filter32_f_0_1)">
<circle cx="547" cy="132" r="13" fill="#F3C409"/>
</g>
<g id="Ellipse 2_17" filter="url(#filter33_f_0_1)">
<circle cx="547" cy="132" r="10" fill="#FFE373"/>
</g>
</g>
<g id="buble1_18">
<g id="Ellipse 3_18" filter="url(#filter34_f_0_1)">
<circle cx="547" cy="167" r="13" fill="#F3C409"/>
</g>
<g id="Ellipse 2_18" filter="url(#filter35_f_0_1)">
<circle cx="547" cy="167" r="10" fill="#FFE373"/>
</g>
</g>
<g id="buble1_19">
<g id="Ellipse 3_19" filter="url(#filter36_f_0_1)">
<circle cx="547" cy="202" r="13" fill="#F3C409"/>
</g>
<g id="Ellipse 2_19" filter="url(#filter37_f_0_1)">
<circle cx="547" cy="202" r="10" fill="#FFE373"/>
</g>
</g>
<g id="buble1_20">
<g id="Ellipse 3_20" filter="url(#filter38_f_0_1)">
<circle cx="547" cy="240" r="13" fill="#F3C409"/>
</g>
<g id="Ellipse 2_20" filter="url(#filter39_f_0_1)">
<circle cx="547" cy="240" r="10" fill="#FFE373"/>
</g>
</g>
<g id="buble1_21">
<g id="Ellipse 3_21" filter="url(#filter40_f_0_1)">
<circle cx="223" cy="94" r="13" fill="#F3C409"/>
</g>
<g id="Ellipse 2_21" filter="url(#filter41_f_0_1)">
<circle cx="223" cy="94" r="10" fill="#FFE373"/>
</g>
</g>
<g id="buble1_22">
<g id="Ellipse 3_22" filter="url(#filter42_f_0_1)">
<circle cx="259" cy="94" r="13" fill="#F3C409"/>
</g>
<g id="Ellipse 2_22" filter="url(#filter43_f_0_1)">
<circle cx="259" cy="94" r="10" fill="#FFE373"/>
</g>
</g>
<g id="buble1_23">
<g id="Ellipse 3_23" filter="url(#filter44_f_0_1)">
<circle cx="295" cy="240" r="13" fill="#F3C409"/>
</g>
<g id="Ellipse 2_23" filter="url(#filter45_f_0_1)">
<circle cx="295" cy="240" r="10" fill="#FFE373"/>
</g>
</g>
<g id="buble1_24">
<g id="Ellipse 3_24" filter="url(#filter46_f_0_1)">
<circle cx="331" cy="240" r="13" fill="#F3C409"/>
</g>
<g id="Ellipse 2_24" filter="url(#filter47_f_0_1)">
<circle cx="331" cy="240" r="10" fill="#FFE373"/>
</g>
</g>
<g id="buble1_25">
<g id="Ellipse 3_25" filter="url(#filter48_f_0_1)">
<circle cx="367" cy="240" r="13" fill="#F3C409"/>
</g>
<g id="Ellipse 2_25" filter="url(#filter49_f_0_1)">
<circle cx="367" cy="240" r="10" fill="#FFE373"/>
</g>
</g>
<g id="buble1_26">
<g id="Ellipse 3_26" filter="url(#filter50_f_0_1)">
<circle cx="403" cy="240" r="13" fill="#F3C409"/>
</g>
<g id="Ellipse 2_26" filter="url(#filter51_f_0_1)">
<circle cx="403" cy="240" r="10" fill="#FFE373"/>
</g>
</g>
<g id="buble1_27">
<g id="Ellipse 3_27" filter="url(#filter52_f_0_1)">
<circle cx="439" cy="240" r="13" fill="#F3C409"/>
</g>
<g id="Ellipse 2_27" filter="url(#filter53_f_0_1)">
<circle cx="439" cy="240" r="10" fill="#FFE373"/>
</g>
</g>
<g id="buble1_28">
<g id="Ellipse 3_28" filter="url(#filter54_f_0_1)">
<circle cx="475" cy="240" r="13" fill="#F3C409"/>
</g>
<g id="Ellipse 2_28" filter="url(#filter55_f_0_1)">
<circle cx="475" cy="240" r="10" fill="#FFE373"/>
</g>
</g>
<g id="buble1_29">
<g id="Ellipse 3_29" filter="url(#filter56_f_0_1)">
<circle cx="511" cy="240" r="13" fill="#F3C409"/>
</g>
<g id="Ellipse 2_29" filter="url(#filter57_f_0_1)">
<circle cx="511" cy="240" r="10" fill="#FFE373"/>
</g>
</g>
<g id="buble1_30">
<g id="Ellipse 3_30" filter="url(#filter58_f_0_1)">
<circle cx="151" cy="240" r="13" fill="#F3C409"/>
</g>
<g id="Ellipse 2_30" filter="url(#filter59_f_0_1)">
<circle cx="151" cy="240" r="10" fill="#FFE373"/>
</g>
</g>
<g id="buble1_31">
<g id="Ellipse 3_31" filter="url(#filter60_f_0_1)">
<circle cx="187" cy="240" r="13" fill="#F3C409"/>
</g>
<g id="Ellipse 2_31" filter="url(#filter61_f_0_1)">
<circle cx="187" cy="240" r="10" fill="#FFE373"/>
</g>
</g>
<g id="buble1_32">
<g id="Ellipse 3_32" filter="url(#filter62_f_0_1)">
<circle cx="223" cy="240" r="13" fill="#F3C409"/>
</g>
<g id="Ellipse 2_32" filter="url(#filter63_f_0_1)">
<circle cx="223" cy="240" r="10" fill="#FFE373"/>
</g>
</g>
<g id="buble1_33">
<g id="Ellipse 3_33" filter="url(#filter64_f_0_1)">
<circle cx="259" cy="240" r="13" fill="#F3C409"/>
</g>
<g id="Ellipse 2_33" filter="url(#filter65_f_0_1)">
<circle cx="259" cy="240" r="10" fill="#FFE373"/>
</g>
</g>
<g id="Group 2">
<g id="&#195;&#135;A ou &#195;&#135;A?" filter="url(#filter66_f_0_1)">
<path d="M210.114 155.75H200.159C199.977 154.462 199.606 153.318 199.045 152.318C198.485 151.303 197.765 150.439 196.886 149.727C196.008 149.015 194.992 148.47 193.841 148.091C192.705 147.712 191.47 147.523 190.136 147.523C187.727 147.523 185.629 148.121 183.841 149.318C182.053 150.5 180.667 152.227 179.682 154.5C178.697 156.758 178.205 159.5 178.205 162.727C178.205 166.045 178.697 168.833 179.682 171.091C180.682 173.348 182.076 175.053 183.864 176.205C185.652 177.356 187.72 177.932 190.068 177.932C191.386 177.932 192.606 177.758 193.727 177.409C194.864 177.061 195.871 176.553 196.75 175.886C197.629 175.205 198.356 174.379 198.932 173.409C199.523 172.439 199.932 171.333 200.159 170.091L210.114 170.136C209.856 172.273 209.212 174.333 208.182 176.318C207.167 178.288 205.795 180.053 204.068 181.614C202.356 183.159 200.311 184.386 197.932 185.295C195.568 186.189 192.894 186.636 189.909 186.636C185.758 186.636 182.045 185.697 178.773 183.818C175.515 181.939 172.939 179.22 171.045 175.659C169.167 172.098 168.227 167.788 168.227 162.727C168.227 157.652 169.182 153.333 171.091 149.773C173 146.212 175.591 143.5 178.864 141.636C182.136 139.758 185.818 138.818 189.909 138.818C192.606 138.818 195.106 139.197 197.409 139.955C199.727 140.712 201.78 141.818 203.568 143.273C205.356 144.712 206.811 146.477 207.932 148.568C209.068 150.659 209.795 153.053 210.114 155.75ZM187.477 185.864H191.932L191.568 187.841C193.129 188.083 194.402 188.667 195.386 189.591C196.386 190.515 196.894 191.773 196.909 193.364C196.924 195.621 195.879 197.417 193.773 198.75C191.667 200.098 188.712 200.773 184.909 200.773L184.818 196.455C186.727 196.455 188.22 196.22 189.295 195.75C190.386 195.295 190.955 194.583 191 193.614C191.03 192.689 190.674 191.985 189.932 191.5C189.189 191.015 188.03 190.674 186.455 190.477L187.477 185.864ZM224.318 186H213.773L229.841 139.455H242.523L258.568 186H248.023L236.364 150.091H236L224.318 186ZM223.659 167.705H248.568V175.386H223.659V167.705ZM294.574 186.682C291.044 186.682 287.991 185.932 285.415 184.432C282.854 182.917 280.877 180.811 279.483 178.114C278.089 175.402 277.392 172.258 277.392 168.682C277.392 165.076 278.089 161.924 279.483 159.227C280.877 156.515 282.854 154.409 285.415 152.909C287.991 151.394 291.044 150.636 294.574 150.636C298.104 150.636 301.15 151.394 303.71 152.909C306.286 154.409 308.271 156.515 309.665 159.227C311.059 161.924 311.756 165.076 311.756 168.682C311.756 172.258 311.059 175.402 309.665 178.114C308.271 180.811 306.286 182.917 303.71 184.432C301.15 185.932 298.104 186.682 294.574 186.682ZM294.619 179.182C296.225 179.182 297.566 178.727 298.642 177.818C299.718 176.894 300.528 175.636 301.074 174.045C301.634 172.455 301.915 170.644 301.915 168.614C301.915 166.583 301.634 164.773 301.074 163.182C300.528 161.591 299.718 160.333 298.642 159.409C297.566 158.485 296.225 158.023 294.619 158.023C292.998 158.023 291.634 158.485 290.528 159.409C289.438 160.333 288.612 161.591 288.051 163.182C287.506 164.773 287.233 166.583 287.233 168.614C287.233 170.644 287.506 172.455 288.051 174.045C288.612 175.636 289.438 176.894 290.528 177.818C291.634 178.727 292.998 179.182 294.619 179.182ZM340.438 171.136V151.091H350.119V186H340.824V179.659H340.46C339.672 181.705 338.362 183.348 336.528 184.591C334.71 185.833 332.491 186.455 329.869 186.455C327.536 186.455 325.483 185.924 323.71 184.864C321.938 183.803 320.551 182.295 319.551 180.341C318.566 178.386 318.066 176.045 318.051 173.318V151.091H327.733V171.591C327.748 173.652 328.301 175.28 329.392 176.477C330.483 177.674 331.945 178.273 333.778 178.273C334.945 178.273 336.036 178.008 337.051 177.477C338.066 176.932 338.884 176.129 339.506 175.068C340.142 174.008 340.453 172.697 340.438 171.136ZM413.926 155.75H403.972C403.79 154.462 403.419 153.318 402.858 152.318C402.297 151.303 401.578 150.439 400.699 149.727C399.82 149.015 398.805 148.47 397.653 148.091C396.517 147.712 395.282 147.523 393.949 147.523C391.54 147.523 389.441 148.121 387.653 149.318C385.866 150.5 384.479 152.227 383.494 154.5C382.509 156.758 382.017 159.5 382.017 162.727C382.017 166.045 382.509 168.833 383.494 171.091C384.494 173.348 385.888 175.053 387.676 176.205C389.464 177.356 391.532 177.932 393.881 177.932C395.199 177.932 396.419 177.758 397.54 177.409C398.676 177.061 399.684 176.553 400.562 175.886C401.441 175.205 402.169 174.379 402.744 173.409C403.335 172.439 403.744 171.333 403.972 170.091L413.926 170.136C413.669 172.273 413.025 174.333 411.994 176.318C410.979 178.288 409.608 180.053 407.881 181.614C406.169 183.159 404.123 184.386 401.744 185.295C399.381 186.189 396.706 186.636 393.722 186.636C389.57 186.636 385.858 185.697 382.585 183.818C379.328 181.939 376.752 179.22 374.858 175.659C372.979 172.098 372.04 167.788 372.04 162.727C372.04 157.652 372.994 153.333 374.903 149.773C376.813 146.212 379.403 143.5 382.676 141.636C385.949 139.758 389.631 138.818 393.722 138.818C396.419 138.818 398.919 139.197 401.222 139.955C403.54 140.712 405.593 141.818 407.381 143.273C409.169 144.712 410.623 146.477 411.744 148.568C412.881 150.659 413.608 153.053 413.926 155.75ZM391.29 185.864H395.744L395.381 187.841C396.941 188.083 398.214 188.667 399.199 189.591C400.199 190.515 400.706 191.773 400.722 193.364C400.737 195.621 399.691 197.417 397.585 198.75C395.479 200.098 392.525 200.773 388.722 200.773L388.631 196.455C390.54 196.455 392.032 196.22 393.108 195.75C394.199 195.295 394.767 194.583 394.812 193.614C394.843 192.689 394.487 191.985 393.744 191.5C393.002 191.015 391.843 190.674 390.267 190.477L391.29 185.864ZM428.131 186H417.585L433.653 139.455H446.335L462.381 186H451.835L440.176 150.091H439.812L428.131 186ZM427.472 167.705H452.381V175.386H427.472V167.705ZM472.119 172.045V171.273C472.134 168.621 472.369 166.508 472.824 164.932C473.294 163.356 473.975 162.083 474.869 161.114C475.763 160.144 476.839 159.265 478.097 158.477C479.036 157.871 479.877 157.242 480.619 156.591C481.362 155.939 481.953 155.22 482.392 154.432C482.831 153.629 483.051 152.735 483.051 151.75C483.051 150.705 482.801 149.788 482.301 149C481.801 148.212 481.127 147.606 480.278 147.182C479.445 146.758 478.521 146.545 477.506 146.545C476.521 146.545 475.589 146.765 474.71 147.205C473.831 147.629 473.112 148.265 472.551 149.114C471.991 149.947 471.688 150.985 471.642 152.227H462.369C462.445 149.197 463.172 146.697 464.551 144.727C465.93 142.742 467.756 141.265 470.028 140.295C472.301 139.311 474.809 138.818 477.551 138.818C480.566 138.818 483.233 139.318 485.551 140.318C487.869 141.303 489.688 142.735 491.006 144.614C492.324 146.492 492.983 148.758 492.983 151.409C492.983 153.182 492.688 154.758 492.097 156.136C491.521 157.5 490.71 158.712 489.665 159.773C488.619 160.818 487.384 161.765 485.96 162.614C484.763 163.326 483.778 164.068 483.006 164.841C482.248 165.614 481.68 166.508 481.301 167.523C480.938 168.538 480.748 169.788 480.733 171.273V172.045H472.119ZM476.619 186.591C475.104 186.591 473.809 186.061 472.733 185C471.672 183.924 471.15 182.636 471.165 181.136C471.15 179.652 471.672 178.379 472.733 177.318C473.809 176.258 475.104 175.727 476.619 175.727C478.059 175.727 479.324 176.258 480.415 177.318C481.506 178.379 482.059 179.652 482.074 181.136C482.059 182.136 481.794 183.053 481.278 183.886C480.778 184.705 480.119 185.364 479.301 185.864C478.483 186.348 477.589 186.591 476.619 186.591Z" fill="#F3C409"/>
<path d="M210.114 155.75V156.75H211.239L211.107 155.633L210.114 155.75ZM200.159 155.75L199.169 155.89L199.29 156.75H200.159V155.75ZM199.045 152.318L198.17 152.802L198.173 152.807L199.045 152.318ZM196.886 149.727L196.257 150.504L196.257 150.504L196.886 149.727ZM193.841 148.091L193.525 149.04L193.528 149.041L193.841 148.091ZM183.841 149.318L184.392 150.152L184.397 150.149L183.841 149.318ZM179.682 154.5L180.598 154.9L180.599 154.898L179.682 154.5ZM179.682 171.091L178.765 171.491L178.768 171.496L179.682 171.091ZM183.864 176.205L183.322 177.045L183.322 177.045L183.864 176.205ZM193.727 177.409L193.434 176.453L193.43 176.454L193.727 177.409ZM196.75 175.886L197.354 176.683L197.363 176.676L196.75 175.886ZM198.932 173.409L198.078 172.889L198.072 172.899L198.932 173.409ZM200.159 170.091L200.164 169.091L199.326 169.087L199.175 169.911L200.159 170.091ZM210.114 170.136L211.106 170.256L211.241 169.141L210.118 169.136L210.114 170.136ZM208.182 176.318L207.294 175.857L207.293 175.86L208.182 176.318ZM204.068 181.614L204.738 182.356L204.739 182.356L204.068 181.614ZM197.932 185.295L198.286 186.231L198.289 186.23L197.932 185.295ZM178.773 183.818L178.273 184.684L178.275 184.685L178.773 183.818ZM171.045 175.659L170.161 176.126L170.163 176.129L171.045 175.659ZM171.091 149.773L171.972 150.245L171.972 150.245L171.091 149.773ZM178.864 141.636L179.358 142.505L179.362 142.504L178.864 141.636ZM197.409 139.955L197.097 140.904L197.098 140.905L197.409 139.955ZM203.568 143.273L202.937 144.048L202.941 144.052L203.568 143.273ZM207.932 148.568L207.051 149.041L207.053 149.046L207.932 148.568ZM187.477 185.864V184.864H186.675L186.501 185.647L187.477 185.864ZM191.932 185.864L192.915 186.045L193.132 184.864H191.932V185.864ZM191.568 187.841L190.585 187.66L190.399 188.671L191.415 188.829L191.568 187.841ZM195.386 189.591L194.702 190.32L194.708 190.325L195.386 189.591ZM196.909 193.364L197.909 193.357L197.909 193.354L196.909 193.364ZM193.773 198.75L193.238 197.905L193.234 197.908L193.773 198.75ZM184.909 200.773L183.909 200.794L183.93 201.773H184.909V200.773ZM184.818 196.455V195.455H183.797L183.818 196.476L184.818 196.455ZM189.295 195.75L188.911 194.827L188.903 194.83L188.895 194.834L189.295 195.75ZM191 193.614L191.999 193.66L191.999 193.646L191 193.614ZM189.932 191.5L189.385 192.337L189.385 192.337L189.932 191.5ZM186.455 190.477L185.478 190.261L185.241 191.333L186.331 191.47L186.455 190.477ZM210.114 154.75H200.159V156.75H210.114V154.75ZM201.149 155.61C200.952 154.216 200.547 152.951 199.918 151.829L198.173 152.807C198.666 153.686 199.002 154.708 199.169 155.89L201.149 155.61ZM199.921 151.835C199.3 150.71 198.497 149.746 197.516 148.95L196.257 150.504C197.033 151.133 197.67 151.896 198.17 152.802L199.921 151.835ZM197.516 148.95C196.536 148.156 195.412 147.555 194.153 147.141L193.528 149.041C194.573 149.384 195.479 149.874 196.257 150.504L197.516 148.95ZM194.157 147.142C192.908 146.726 191.565 146.523 190.136 146.523V148.523C191.374 148.523 192.501 148.698 193.525 149.04L194.157 147.142ZM190.136 146.523C187.554 146.523 185.256 147.167 183.285 148.487L184.397 150.149C186.001 149.075 187.901 148.523 190.136 148.523V146.523ZM183.289 148.484C181.316 149.789 179.814 151.68 178.764 154.102L180.599 154.898C181.519 152.774 182.79 151.211 184.392 150.152L183.289 148.484ZM178.765 154.1C177.711 156.516 177.205 159.403 177.205 162.727H179.205C179.205 159.597 179.683 156.999 180.598 154.9L178.765 154.1ZM177.205 162.727C177.205 166.138 177.71 169.071 178.765 171.491L180.598 170.691C179.684 168.595 179.205 165.953 179.205 162.727H177.205ZM178.768 171.496C179.834 173.903 181.345 175.772 183.322 177.045L184.405 175.364C182.807 174.334 181.53 172.794 180.596 170.686L178.768 171.496ZM183.322 177.045C185.288 178.311 187.548 178.932 190.068 178.932V176.932C187.891 176.932 186.015 176.401 184.405 175.364L183.322 177.045ZM190.068 178.932C191.475 178.932 192.796 178.746 194.024 178.364L193.43 176.454C192.416 176.769 191.298 176.932 190.068 176.932V178.932ZM194.02 178.365C195.26 177.985 196.375 177.426 197.354 176.683L196.146 175.09C195.367 175.68 194.467 176.136 193.434 176.453L194.02 178.365ZM197.363 176.676C198.342 175.917 199.153 174.996 199.792 173.92L198.072 172.899C197.559 173.762 196.915 174.492 196.137 175.096L197.363 176.676ZM199.786 173.929C200.447 172.844 200.896 171.62 201.143 170.271L199.175 169.911C198.968 171.046 198.598 172.035 198.078 172.889L199.786 173.929ZM200.155 171.091L210.109 171.136L210.118 169.136L200.164 169.091L200.155 171.091ZM209.121 170.017C208.878 172.029 208.272 173.975 207.294 175.857L209.069 176.779C210.153 174.692 210.834 172.516 211.106 170.256L209.121 170.017ZM207.293 175.86C206.336 177.717 205.04 179.388 203.398 180.872L204.739 182.356C206.551 180.718 207.998 178.858 209.071 176.776L207.293 175.86ZM203.398 180.871C201.787 182.326 199.85 183.492 197.575 184.361L198.289 186.23C200.771 185.281 202.925 183.992 204.738 182.356L203.398 180.871ZM197.578 184.36C195.346 185.204 192.795 185.636 189.909 185.636V187.636C192.993 187.636 195.79 187.174 198.286 186.231L197.578 184.36ZM189.909 185.636C185.914 185.636 182.377 184.734 179.271 182.951L178.275 184.685C181.714 186.66 185.601 187.636 189.909 187.636V185.636ZM179.272 182.952C176.189 181.174 173.741 178.597 171.928 175.189L170.163 176.129C172.138 179.842 174.841 182.705 178.273 184.684L179.272 182.952ZM171.93 175.192C170.144 171.808 169.227 167.666 169.227 162.727H167.227C167.227 167.91 168.189 172.389 170.161 176.126L171.93 175.192ZM169.227 162.727C169.227 157.775 170.159 153.628 171.972 150.245L170.21 149.3C168.205 153.039 167.227 157.528 167.227 162.727H169.227ZM171.972 150.245C173.799 146.838 176.261 144.269 179.358 142.505L178.369 140.767C174.921 142.731 172.201 145.586 170.21 149.3L171.972 150.245ZM179.362 142.504C182.47 140.719 185.978 139.818 189.909 139.818V137.818C185.659 137.818 181.803 138.796 178.366 140.769L179.362 142.504ZM189.909 139.818C192.512 139.818 194.905 140.184 197.097 140.904L197.722 139.005C195.307 138.21 192.7 137.818 189.909 137.818V139.818ZM197.098 140.905C199.307 141.627 201.25 142.676 202.937 144.048L204.199 142.497C202.311 140.961 200.148 139.797 197.72 139.004L197.098 140.905ZM202.941 144.052C204.621 145.404 205.99 147.064 207.051 149.041L208.813 148.096C207.631 145.891 206.091 144.02 204.195 142.494L202.941 144.052ZM207.053 149.046C208.121 151.01 208.815 153.279 209.121 155.867L211.107 155.633C210.776 152.827 210.015 150.308 208.81 148.091L207.053 149.046ZM187.477 186.864H191.932V184.864H187.477V186.864ZM190.948 185.683L190.585 187.66L192.552 188.022L192.915 186.045L190.948 185.683ZM191.415 188.829C192.811 189.046 193.888 189.556 194.702 190.32L196.071 188.862C194.915 187.778 193.447 187.121 191.722 186.853L191.415 188.829ZM194.708 190.325C195.471 191.031 195.896 192.007 195.909 193.373L197.909 193.354C197.892 191.538 197.302 190 196.065 188.857L194.708 190.325ZM195.909 193.37C195.922 195.242 195.089 196.733 193.238 197.905L194.308 199.595C196.669 198.1 197.927 196 197.909 193.357L195.909 193.37ZM193.234 197.908C191.352 199.113 188.613 199.773 184.909 199.773V201.773C188.811 201.773 191.982 201.084 194.312 199.592L193.234 197.908ZM185.909 200.752L185.818 196.433L183.818 196.476L183.909 200.794L185.909 200.752ZM184.818 197.455C186.789 197.455 188.439 197.215 189.696 196.666L188.895 194.834C188 195.224 186.665 195.455 184.818 195.455V197.455ZM189.68 196.673C190.336 196.4 190.906 196.02 191.321 195.499C191.746 194.967 191.967 194.341 191.999 193.66L190.001 193.567C189.988 193.856 189.902 194.071 189.758 194.251C189.606 194.442 189.346 194.646 188.911 194.827L189.68 196.673ZM191.999 193.646C192.041 192.391 191.529 191.348 190.479 190.663L189.385 192.337C189.82 192.621 190.02 192.988 190.001 193.581L191.999 193.646ZM190.479 190.663C189.545 190.053 188.204 189.688 186.579 189.485L186.331 191.47C187.857 191.66 188.834 191.978 189.385 192.337L190.479 190.663ZM187.431 190.694L188.454 186.08L186.501 185.647L185.478 190.261L187.431 190.694ZM224.318 186V187H225.044L225.269 186.309L224.318 186ZM213.773 186L212.827 185.674L212.37 187H213.773V186ZM229.841 139.455V138.455H229.128L228.896 139.128L229.841 139.455ZM242.523 139.455L243.468 139.129L243.236 138.455H242.523V139.455ZM258.568 186V187H259.971L259.514 185.674L258.568 186ZM248.023 186L247.072 186.309L247.296 187H248.023V186ZM236.364 150.091L237.315 149.782L237.09 149.091H236.364V150.091ZM236 150.091V149.091H235.274L235.049 149.782L236 150.091ZM223.659 167.705V166.705H222.659V167.705H223.659ZM248.568 167.705H249.568V166.705H248.568V167.705ZM248.568 175.386V176.386H249.568V175.386H248.568ZM223.659 175.386H222.659V176.386H223.659V175.386ZM224.318 185H213.773V187H224.318V185ZM214.718 186.326L230.786 139.781L228.896 139.128L212.827 185.674L214.718 186.326ZM229.841 140.455H242.523V138.455H229.841V140.455ZM241.577 139.78L257.623 186.326L259.514 185.674L243.468 139.129L241.577 139.78ZM258.568 185H248.023V187H258.568V185ZM248.974 185.691L237.315 149.782L235.413 150.4L247.072 186.309L248.974 185.691ZM236.364 149.091H236V151.091H236.364V149.091ZM235.049 149.782L223.367 185.691L225.269 186.309L236.951 150.4L235.049 149.782ZM223.659 168.705H248.568V166.705H223.659V168.705ZM247.568 167.705V175.386H249.568V167.705H247.568ZM248.568 174.386H223.659V176.386H248.568V174.386ZM224.659 175.386V167.705H222.659V175.386H224.659ZM285.415 184.432L284.906 185.292L284.912 185.296L285.415 184.432ZM279.483 178.114L278.594 178.571L278.595 178.573L279.483 178.114ZM279.483 159.227L280.371 159.686L280.372 159.684L279.483 159.227ZM285.415 152.909L285.92 153.772L285.922 153.771L285.415 152.909ZM303.71 152.909L303.201 153.77L303.207 153.773L303.71 152.909ZM309.665 159.227L308.775 159.684L308.776 159.686L309.665 159.227ZM309.665 178.114L310.553 178.573L310.554 178.571L309.665 178.114ZM303.71 184.432L304.216 185.295L304.217 185.294L303.71 184.432ZM298.642 177.818L299.288 178.582L299.294 178.577L298.642 177.818ZM301.074 174.045L300.131 173.713L300.128 173.721L301.074 174.045ZM301.074 163.182L300.128 163.506L300.131 163.514L301.074 163.182ZM290.528 159.409L289.887 158.642L289.882 158.646L290.528 159.409ZM288.051 163.182L287.108 162.849L287.105 162.857L288.051 163.182ZM288.051 174.045L287.105 174.37L287.108 174.378L288.051 174.045ZM290.528 177.818L289.882 178.581L289.888 178.586L289.893 178.591L290.528 177.818ZM294.574 185.682C291.188 185.682 288.315 184.964 285.918 183.568L284.912 185.296C287.666 186.9 290.9 187.682 294.574 187.682V185.682ZM285.924 183.571C283.528 182.154 281.681 180.188 280.371 177.654L278.595 178.573C280.073 181.433 282.18 183.68 284.906 185.292L285.924 183.571ZM280.372 177.657C279.063 175.108 278.392 172.126 278.392 168.682H276.392C276.392 172.389 277.115 175.695 278.594 178.571L280.372 177.657ZM278.392 168.682C278.392 165.206 279.063 162.217 280.371 159.686L278.595 158.768C277.115 161.631 276.392 164.946 276.392 168.682H278.392ZM280.372 159.684C281.682 157.136 283.528 155.173 285.92 153.772L284.909 152.046C282.18 153.645 280.072 155.894 278.594 158.77L280.372 159.684ZM285.922 153.771C288.318 152.361 291.189 151.636 294.574 151.636V149.636C290.898 149.636 287.663 150.426 284.908 152.047L285.922 153.771ZM294.574 151.636C297.959 151.636 300.821 152.362 303.201 153.77L304.219 152.048C301.478 150.426 298.25 149.636 294.574 149.636V151.636ZM303.207 153.773C305.614 155.175 307.467 157.138 308.775 159.684L310.554 158.77C309.075 155.892 306.958 153.643 304.213 152.045L303.207 153.773ZM308.776 159.686C310.084 162.217 310.756 165.206 310.756 168.682H312.756C312.756 164.946 312.033 161.631 310.553 158.768L308.776 159.686ZM310.756 168.682C310.756 172.126 310.085 175.108 308.775 177.657L310.554 178.571C312.032 175.695 312.756 172.389 312.756 168.682H310.756ZM308.776 177.654C307.468 180.187 305.614 182.152 303.203 183.57L304.217 185.294C306.958 183.681 309.074 181.434 310.553 178.573L308.776 177.654ZM303.205 183.569C300.824 184.963 297.96 185.682 294.574 185.682V187.682C298.248 187.682 301.475 186.9 304.216 185.295L303.205 183.569ZM294.619 180.182C296.427 180.182 298.006 179.665 299.288 178.582L297.997 177.054C297.126 177.79 296.024 178.182 294.619 178.182V180.182ZM299.294 178.577C300.528 177.517 301.427 176.098 302.02 174.37L300.128 173.721C299.629 175.175 298.908 176.271 297.99 177.06L299.294 178.577ZM302.017 174.378C302.622 172.661 302.915 170.735 302.915 168.614H300.915C300.915 170.553 300.647 172.248 300.131 173.713L302.017 174.378ZM302.915 168.614C302.915 166.492 302.622 164.566 302.017 162.849L300.131 163.514C300.647 164.979 300.915 166.674 300.915 168.614H302.915ZM302.02 162.857C301.427 161.13 300.528 159.711 299.294 158.651L297.99 160.168C298.908 160.956 299.629 162.052 300.128 163.506L302.02 162.857ZM299.294 158.651C298.013 157.55 296.431 157.023 294.619 157.023V159.023C296.02 159.023 297.12 159.42 297.99 160.168L299.294 158.651ZM294.619 157.023C292.795 157.023 291.196 157.548 289.887 158.642L291.17 160.176C292.073 159.421 293.201 159.023 294.619 159.023V157.023ZM289.882 158.646C288.633 159.704 287.717 161.122 287.108 162.849L288.994 163.514C289.507 162.06 290.242 160.963 291.175 160.172L289.882 158.646ZM287.105 162.857C286.517 164.572 286.233 166.495 286.233 168.614H288.233C288.233 166.672 288.494 164.974 288.997 163.506L287.105 162.857ZM286.233 168.614C286.233 170.732 286.517 172.655 287.105 174.37L288.997 173.721C288.494 172.254 288.233 170.556 288.233 168.614H286.233ZM287.108 174.378C287.717 176.106 288.633 177.523 289.882 178.581L291.175 177.055C290.242 176.265 289.507 175.167 288.994 173.713L287.108 174.378ZM289.893 178.591C291.202 179.666 292.799 180.182 294.619 180.182V178.182C293.197 178.182 292.067 177.788 291.163 177.046L289.893 178.591ZM340.438 171.136H339.437L339.438 171.146L340.438 171.136ZM340.438 151.091V150.091H339.438V151.091H340.438ZM350.119 151.091H351.119V150.091H350.119V151.091ZM350.119 186V187H351.119V186H350.119ZM340.824 186H339.824V187H340.824V186ZM340.824 179.659H341.824V178.659H340.824V179.659ZM340.46 179.659V178.659H339.774L339.527 179.3L340.46 179.659ZM336.528 184.591L335.967 183.763L335.964 183.765L336.528 184.591ZM323.71 184.864L324.224 184.005L324.224 184.005L323.71 184.864ZM319.551 180.341L318.658 180.791L318.661 180.796L319.551 180.341ZM318.051 173.318H317.051L317.051 173.324L318.051 173.318ZM318.051 151.091V150.091H317.051V151.091H318.051ZM327.733 151.091H328.733V150.091H327.733V151.091ZM327.733 171.591H326.733L326.733 171.598L327.733 171.591ZM329.392 176.477L330.131 175.804L330.131 175.804L329.392 176.477ZM337.051 177.477L337.514 178.364L337.524 178.358L337.051 177.477ZM339.506 175.068L338.648 174.554L338.643 174.563L339.506 175.068ZM341.438 171.136V151.091H339.438V171.136H341.438ZM340.438 152.091H350.119V150.091H340.438V152.091ZM349.119 151.091V186H351.119V151.091H349.119ZM350.119 185H340.824V187H350.119V185ZM341.824 186V179.659H339.824V186H341.824ZM340.824 178.659H340.46V180.659H340.824V178.659ZM339.527 179.3C338.813 181.153 337.634 182.634 335.967 183.763L337.089 185.419C339.09 184.063 340.531 182.257 341.393 180.019L339.527 179.3ZM335.964 183.765C334.342 184.874 332.328 185.455 329.869 185.455V187.455C332.653 187.455 335.079 186.793 337.093 185.417L335.964 183.765ZM329.869 185.455C327.693 185.455 325.822 184.962 324.224 184.005L323.197 185.722C325.144 186.887 327.379 187.455 329.869 187.455V185.455ZM324.224 184.005C322.622 183.047 321.362 181.684 320.441 179.885L318.661 180.796C319.741 182.907 321.253 184.559 323.197 185.722L324.224 184.005ZM320.444 179.891C319.544 178.104 319.066 175.923 319.051 173.313L317.051 173.324C317.067 176.168 317.589 178.669 318.658 180.791L320.444 179.891ZM319.051 173.318V151.091H317.051V173.318H319.051ZM318.051 152.091H327.733V150.091H318.051V152.091ZM326.733 151.091V171.591H328.733V151.091H326.733ZM326.733 171.598C326.749 173.836 327.354 175.726 328.653 177.151L330.131 175.804C329.248 174.835 328.747 173.467 328.733 171.584L326.733 171.598ZM328.653 177.151C329.959 178.584 331.705 179.273 333.778 179.273V177.273C332.185 177.273 331.007 176.764 330.131 175.804L328.653 177.151ZM333.778 179.273C335.103 179.273 336.353 178.97 337.514 178.364L336.588 176.591C335.719 177.045 334.787 177.273 333.778 177.273V179.273ZM337.524 178.358C338.712 177.72 339.661 176.782 340.369 175.574L338.643 174.563C338.108 175.476 337.42 176.144 336.578 176.596L337.524 178.358ZM340.363 175.583C341.116 174.327 341.454 172.824 341.437 171.127L339.438 171.146C339.451 172.57 339.168 173.688 338.648 174.554L340.363 175.583ZM413.926 155.75V156.75H415.051L414.919 155.633L413.926 155.75ZM403.972 155.75L402.981 155.89L403.103 156.75H403.972V155.75ZM402.858 152.318L401.983 152.802L401.986 152.807L402.858 152.318ZM400.699 149.727L400.069 150.504L400.069 150.504L400.699 149.727ZM397.653 148.091L397.337 149.04L397.341 149.041L397.653 148.091ZM387.653 149.318L388.205 150.152L388.21 150.149L387.653 149.318ZM383.494 154.5L384.411 154.9L384.412 154.898L383.494 154.5ZM383.494 171.091L382.578 171.491L382.58 171.496L383.494 171.091ZM387.676 176.205L387.135 177.045L387.135 177.045L387.676 176.205ZM397.54 177.409L397.247 176.453L397.243 176.454L397.54 177.409ZM400.562 175.886L401.167 176.683L401.175 176.676L400.562 175.886ZM402.744 173.409L401.89 172.889L401.884 172.899L402.744 173.409ZM403.972 170.091L403.976 169.091L403.139 169.087L402.988 169.911L403.972 170.091ZM413.926 170.136L414.919 170.256L415.053 169.141L413.931 169.136L413.926 170.136ZM411.994 176.318L411.107 175.857L411.105 175.86L411.994 176.318ZM407.881 181.614L408.551 182.356L408.551 182.356L407.881 181.614ZM401.744 185.295L402.098 186.231L402.101 186.23L401.744 185.295ZM382.585 183.818L382.086 184.684L382.087 184.685L382.585 183.818ZM374.858 175.659L373.974 176.126L373.975 176.129L374.858 175.659ZM374.903 149.773L375.785 150.245L375.785 150.245L374.903 149.773ZM382.676 141.636L383.171 142.505L383.174 142.504L382.676 141.636ZM401.222 139.955L400.909 140.904L400.911 140.905L401.222 139.955ZM407.381 143.273L406.75 144.048L406.754 144.052L407.381 143.273ZM411.744 148.568L410.863 149.041L410.866 149.046L411.744 148.568ZM391.29 185.864V184.864H390.487L390.313 185.647L391.29 185.864ZM395.744 185.864L396.728 186.045L396.945 184.864H395.744V185.864ZM395.381 187.841L394.397 187.66L394.211 188.671L395.227 188.829L395.381 187.841ZM399.199 189.591L398.515 190.32L398.52 190.325L399.199 189.591ZM400.722 193.364L401.722 193.357L401.722 193.354L400.722 193.364ZM397.585 198.75L397.05 197.905L397.046 197.908L397.585 198.75ZM388.722 200.773L387.722 200.794L387.742 201.773H388.722V200.773ZM388.631 196.455V195.455H387.609L387.631 196.476L388.631 196.455ZM393.108 195.75L392.723 194.827L392.716 194.83L392.708 194.834L393.108 195.75ZM394.812 193.614L395.812 193.66L395.812 193.646L394.812 193.614ZM393.744 191.5L393.198 192.337L393.198 192.337L393.744 191.5ZM390.267 190.477L389.291 190.261L389.053 191.333L390.143 191.47L390.267 190.477ZM413.926 154.75H403.972V156.75H413.926V154.75ZM404.962 155.61C404.765 154.216 404.359 152.951 403.73 151.829L401.986 152.807C402.478 153.686 402.815 154.708 402.981 155.89L404.962 155.61ZM403.733 151.835C403.112 150.71 402.31 149.746 401.328 148.95L400.069 150.504C400.845 151.133 401.483 151.896 401.983 152.802L403.733 151.835ZM401.328 148.95C400.349 148.156 399.224 147.555 397.966 147.141L397.341 149.041C398.385 149.384 399.291 149.874 400.069 150.504L401.328 148.95ZM397.97 147.142C396.72 146.726 395.378 146.523 393.949 146.523V148.523C395.187 148.523 396.314 148.698 397.337 149.04L397.97 147.142ZM393.949 146.523C391.366 146.523 389.069 147.167 387.097 148.487L388.21 150.149C389.814 149.075 391.713 148.523 393.949 148.523V146.523ZM387.102 148.484C385.128 149.789 383.626 151.68 382.577 154.102L384.412 154.898C385.332 152.774 386.603 151.211 388.205 150.152L387.102 148.484ZM382.578 154.1C381.524 156.516 381.017 159.403 381.017 162.727H383.017C383.017 159.597 383.495 156.999 384.411 154.9L382.578 154.1ZM381.017 162.727C381.017 166.138 381.522 169.071 382.578 171.491L384.411 170.691C383.497 168.595 383.017 165.953 383.017 162.727H381.017ZM382.58 171.496C383.646 173.903 385.158 175.772 387.135 177.045L388.218 175.364C386.619 174.334 385.343 172.794 384.409 170.686L382.58 171.496ZM387.135 177.045C389.101 178.311 391.361 178.932 393.881 178.932V176.932C391.703 176.932 389.827 176.401 388.218 175.364L387.135 177.045ZM393.881 178.932C395.287 178.932 396.608 178.746 397.837 178.364L397.243 176.454C396.229 176.769 395.11 176.932 393.881 176.932V178.932ZM397.833 178.365C399.073 177.985 400.188 177.426 401.167 176.683L399.958 175.09C399.18 175.68 398.279 176.136 397.247 176.453L397.833 178.365ZM401.175 176.676C402.155 175.917 402.965 174.996 403.604 173.92L401.884 172.899C401.372 173.762 400.728 174.492 399.95 175.096L401.175 176.676ZM403.598 173.929C404.26 172.844 404.708 171.62 404.955 170.271L402.988 169.911C402.78 171.046 402.411 172.035 401.89 172.889L403.598 173.929ZM403.967 171.091L413.922 171.136L413.931 169.136L403.976 169.091L403.967 171.091ZM412.933 170.017C412.691 172.029 412.084 173.975 411.107 175.857L412.882 176.779C413.965 174.692 414.646 172.516 414.919 170.256L412.933 170.017ZM411.105 175.86C410.148 177.717 408.853 179.388 407.21 180.872L408.551 182.356C410.363 180.718 411.81 178.858 412.883 176.776L411.105 175.86ZM407.211 180.871C405.599 182.326 403.663 183.492 401.387 184.361L402.101 186.23C404.583 185.281 406.738 183.992 408.551 182.356L407.211 180.871ZM401.391 184.36C399.158 185.204 396.607 185.636 393.722 185.636V187.636C396.806 187.636 399.603 187.174 402.098 186.231L401.391 184.36ZM393.722 185.636C389.727 185.636 386.189 184.734 383.083 182.951L382.087 184.685C385.526 186.66 389.413 187.636 393.722 187.636V185.636ZM383.085 182.952C380.002 181.174 377.553 178.597 375.741 175.189L373.975 176.129C375.95 179.842 378.654 182.705 382.086 184.684L383.085 182.952ZM375.742 175.192C373.957 171.808 373.04 167.666 373.04 162.727H371.04C371.04 167.91 372.002 172.389 373.974 176.126L375.742 175.192ZM373.04 162.727C373.04 157.775 373.971 153.628 375.785 150.245L374.022 149.3C372.018 153.039 371.04 157.528 371.04 162.727H373.04ZM375.785 150.245C377.612 146.838 380.074 144.269 383.171 142.505L382.181 140.767C378.733 142.731 376.013 145.586 374.022 149.3L375.785 150.245ZM383.174 142.504C386.283 140.719 389.79 139.818 393.722 139.818V137.818C389.471 137.818 385.615 138.796 382.178 140.769L383.174 142.504ZM393.722 139.818C396.324 139.818 398.718 140.184 400.909 140.904L401.534 139.005C399.12 138.21 396.513 137.818 393.722 137.818V139.818ZM400.911 140.905C403.119 141.627 405.062 142.676 406.75 144.048L408.012 142.497C406.123 140.961 403.96 139.797 401.532 139.004L400.911 140.905ZM406.754 144.052C408.434 145.404 409.803 147.064 410.863 149.041L412.626 148.096C411.443 145.891 409.904 144.02 408.008 142.494L406.754 144.052ZM410.866 149.046C411.933 151.01 412.628 153.279 412.933 155.867L414.919 155.633C414.588 152.827 413.828 150.308 412.623 148.091L410.866 149.046ZM391.29 186.864H395.744V184.864H391.29V186.864ZM394.761 185.683L394.397 187.66L396.364 188.022L396.728 186.045L394.761 185.683ZM395.227 188.829C396.623 189.046 397.7 189.556 398.515 190.32L399.883 188.862C398.728 187.778 397.259 187.121 395.534 186.853L395.227 188.829ZM398.52 190.325C399.283 191.031 399.709 192.007 399.722 193.373L401.722 193.354C401.704 191.538 401.114 190 399.878 188.857L398.52 190.325ZM399.722 193.37C399.734 195.242 398.901 196.733 397.05 197.905L398.12 199.595C400.482 198.1 401.739 196 401.722 193.357L399.722 193.37ZM397.046 197.908C395.164 199.113 392.426 199.773 388.722 199.773V201.773C392.623 201.773 395.794 201.084 398.124 199.592L397.046 197.908ZM389.721 200.752L389.63 196.433L387.631 196.476L387.722 200.794L389.721 200.752ZM388.631 197.455C390.602 197.455 392.251 197.215 393.508 196.666L392.708 194.834C391.813 195.224 390.478 195.455 388.631 195.455V197.455ZM393.493 196.673C394.149 196.4 394.718 196.02 395.134 195.499C395.558 194.967 395.78 194.341 395.811 193.66L393.814 193.567C393.8 193.856 393.714 194.071 393.571 194.251C393.418 194.442 393.158 194.646 392.723 194.827L393.493 196.673ZM395.812 193.646C395.853 192.391 395.341 191.348 394.291 190.663L393.198 192.337C393.632 192.621 393.832 192.988 393.813 193.581L395.812 193.646ZM394.291 190.663C393.357 190.053 392.016 189.688 390.391 189.485L390.143 191.47C391.669 191.66 392.647 191.978 393.198 192.337L394.291 190.663ZM391.243 190.694L392.266 186.08L390.313 185.647L389.291 190.261L391.243 190.694ZM428.131 186V187H428.857L429.082 186.309L428.131 186ZM417.585 186L416.64 185.674L416.182 187H417.585V186ZM433.653 139.455V138.455H432.941L432.708 139.128L433.653 139.455ZM446.335 139.455L447.281 139.129L447.048 138.455H446.335V139.455ZM462.381 186V187H463.783L463.326 185.674L462.381 186ZM451.835 186L450.884 186.309L451.109 187H451.835V186ZM440.176 150.091L441.127 149.782L440.903 149.091H440.176V150.091ZM439.812 150.091V149.091H439.086L438.862 149.782L439.812 150.091ZM427.472 167.705V166.705H426.472V167.705H427.472ZM452.381 167.705H453.381V166.705H452.381V167.705ZM452.381 175.386V176.386H453.381V175.386H452.381ZM427.472 175.386H426.472V176.386H427.472V175.386ZM428.131 185H417.585V187H428.131V185ZM418.53 186.326L434.599 139.781L432.708 139.128L416.64 185.674L418.53 186.326ZM433.653 140.455H446.335V138.455H433.653V140.455ZM445.39 139.78L461.435 186.326L463.326 185.674L447.281 139.129L445.39 139.78ZM462.381 185H451.835V187H462.381V185ZM452.786 185.691L441.127 149.782L439.225 150.4L450.884 186.309L452.786 185.691ZM440.176 149.091H439.812V151.091H440.176V149.091ZM438.862 149.782L427.18 185.691L429.082 186.309L440.763 150.4L438.862 149.782ZM427.472 168.705H452.381V166.705H427.472V168.705ZM451.381 167.705V175.386H453.381V167.705H451.381ZM452.381 174.386H427.472V176.386H452.381V174.386ZM428.472 175.386V167.705H426.472V175.386H428.472ZM472.119 172.045H471.119V173.045H472.119V172.045ZM472.119 171.273L471.119 171.267V171.273H472.119ZM472.824 164.932L471.865 164.646L471.863 164.655L472.824 164.932ZM478.097 158.477L478.628 159.325L478.639 159.318L478.097 158.477ZM480.619 156.591L479.96 155.839L479.96 155.839L480.619 156.591ZM482.392 154.432L483.265 154.919L483.269 154.912L482.392 154.432ZM482.301 149L481.457 149.536L481.457 149.536L482.301 149ZM480.278 147.182L479.825 148.073L479.831 148.076L480.278 147.182ZM474.71 147.205L475.145 148.105L475.157 148.099L474.71 147.205ZM472.551 149.114L473.381 149.672L473.385 149.665L472.551 149.114ZM471.642 152.227V153.227H472.606L472.641 152.264L471.642 152.227ZM462.369 152.227L461.37 152.202L461.344 153.227H462.369V152.227ZM464.551 144.727L465.37 145.301L465.372 145.298L464.551 144.727ZM470.028 140.295L470.421 141.215L470.426 141.213L470.028 140.295ZM485.551 140.318L485.155 141.236L485.16 141.239L485.551 140.318ZM491.006 144.614L490.187 145.188L490.187 145.188L491.006 144.614ZM492.097 156.136L491.177 155.742L491.175 155.747L492.097 156.136ZM489.665 159.773L490.372 160.48L490.377 160.475L489.665 159.773ZM485.96 162.614L486.472 163.473L486.472 163.473L485.96 162.614ZM483.006 164.841L482.299 164.134L482.292 164.141L483.006 164.841ZM481.301 167.523L480.364 167.173L480.36 167.185L481.301 167.523ZM480.733 171.273L479.733 171.263V171.273H480.733ZM480.733 172.045V173.045H481.733V172.045H480.733ZM472.733 185L472.021 185.702L472.026 185.707L472.031 185.712L472.733 185ZM471.165 181.136L472.165 181.146L472.165 181.136L472.165 181.126L471.165 181.136ZM472.733 177.318L472.031 176.606L472.026 176.611L472.733 177.318ZM480.415 177.318L479.718 178.035L479.718 178.035L480.415 177.318ZM482.074 181.136L483.074 181.152L483.074 181.139L483.074 181.126L482.074 181.136ZM481.278 183.886L480.428 183.361L480.425 183.365L481.278 183.886ZM479.301 185.864L479.811 186.724L479.823 186.717L479.301 185.864ZM473.119 172.045V171.273H471.119V172.045H473.119ZM473.119 171.278C473.134 168.67 473.366 166.659 473.785 165.209L471.863 164.655C471.372 166.356 471.135 168.573 471.119 171.267L473.119 171.278ZM473.782 165.217C474.219 163.753 474.836 162.625 475.605 161.791L474.134 160.436C473.115 161.542 472.368 162.96 471.866 164.646L473.782 165.217ZM475.605 161.791C476.431 160.895 477.436 160.071 478.628 159.325L477.566 157.63C476.242 158.459 475.095 159.393 474.134 160.436L475.605 161.791ZM478.639 159.318C479.614 158.688 480.495 158.03 481.279 157.343L479.96 155.839C479.259 156.454 478.458 157.054 477.554 157.637L478.639 159.318ZM481.279 157.343C482.099 156.623 482.765 155.816 483.265 154.919L481.519 153.945C481.14 154.624 480.624 155.256 479.96 155.839L481.279 157.343ZM483.269 154.912C483.795 153.951 484.051 152.89 484.051 151.75H482.051C482.051 152.58 481.868 153.307 481.515 153.952L483.269 154.912ZM484.051 151.75C484.051 150.538 483.759 149.431 483.145 148.464L481.457 149.536C481.843 150.145 482.051 150.871 482.051 151.75H484.051ZM483.145 148.464C482.546 147.52 481.734 146.791 480.726 146.287L479.831 148.076C480.52 148.421 481.056 148.904 481.457 149.536L483.145 148.464ZM480.732 146.291C479.746 145.789 478.665 145.545 477.506 145.545V147.545C478.377 147.545 479.144 147.726 479.825 148.073L480.732 146.291ZM477.506 145.545C476.366 145.545 475.281 145.801 474.263 146.31L475.157 148.099C475.897 147.729 476.676 147.545 477.506 147.545V145.545ZM474.275 146.304C473.227 146.81 472.372 147.57 471.717 148.562L473.385 149.665C473.851 148.96 474.435 148.448 475.145 148.105L474.275 146.304ZM471.721 148.555C471.035 149.576 470.693 150.806 470.643 152.191L472.641 152.264C472.682 151.163 472.947 150.317 473.381 149.672L471.721 148.555ZM471.642 151.227H462.369V153.227H471.642V151.227ZM463.369 152.252C463.441 149.367 464.131 147.072 465.37 145.301L463.732 144.154C462.214 146.322 461.449 149.027 461.37 152.202L463.369 152.252ZM465.372 145.298C466.641 143.471 468.317 142.113 470.421 141.215L469.636 139.376C467.194 140.417 465.218 142.014 463.73 144.157L465.372 145.298ZM470.426 141.213C472.56 140.288 474.931 139.818 477.551 139.818V137.818C474.687 137.818 472.042 138.333 469.631 139.378L470.426 141.213ZM477.551 139.818C480.456 139.818 482.984 140.3 485.155 141.236L485.947 139.4C483.482 138.337 480.677 137.818 477.551 137.818V139.818ZM485.16 141.239C487.324 142.158 488.987 143.477 490.187 145.188L491.824 144.039C490.388 141.993 488.415 140.448 485.942 139.398L485.16 141.239ZM490.187 145.188C491.37 146.873 491.983 148.93 491.983 151.409H493.983C493.983 148.585 493.278 146.111 491.824 144.039L490.187 145.188ZM491.983 151.409C491.983 153.071 491.706 154.509 491.177 155.742L493.016 156.53C493.669 155.007 493.983 153.293 493.983 151.409H491.983ZM491.175 155.747C490.649 156.994 489.91 158.1 488.953 159.071L490.377 160.475C491.511 159.325 492.393 158.006 493.018 156.525L491.175 155.747ZM488.958 159.066C487.977 160.046 486.81 160.943 485.448 161.755L486.472 163.473C487.959 162.587 489.261 161.59 490.372 160.48L488.958 159.066ZM485.449 161.754C484.199 162.498 483.143 163.289 482.299 164.134L483.713 165.548C484.413 164.847 485.327 164.154 486.472 163.473L485.449 161.754ZM482.292 164.141C481.436 165.014 480.792 166.027 480.364 167.173L482.238 167.872C482.568 166.988 483.06 166.214 483.72 165.541L482.292 164.141ZM480.36 167.185C479.947 168.337 479.749 169.705 479.733 171.263L481.733 171.283C481.747 169.871 481.928 168.739 482.243 167.86L480.36 167.185ZM479.733 171.273V172.045H481.733V171.273H479.733ZM480.733 171.045H472.119V173.045H480.733V171.045ZM476.619 185.591C475.366 185.591 474.323 185.163 473.435 184.288L472.031 185.712C473.294 186.958 474.842 187.591 476.619 187.591V185.591ZM473.445 184.298C472.57 183.41 472.152 182.378 472.165 181.146L470.165 181.126C470.147 182.895 470.775 184.438 472.021 185.702L473.445 184.298ZM472.165 181.126C472.152 179.913 472.567 178.898 473.44 178.025L472.026 176.611C470.777 177.86 470.147 179.39 470.165 181.147L472.165 181.126ZM473.435 178.03C474.323 177.155 475.366 176.727 476.619 176.727V174.727C474.842 174.727 473.294 175.36 472.031 176.606L473.435 178.03ZM476.619 176.727C477.782 176.727 478.802 177.145 479.718 178.035L481.112 176.601C479.846 175.371 478.335 174.727 476.619 174.727V176.727ZM479.718 178.035C480.623 178.915 481.062 179.936 481.074 181.147L483.074 181.126C483.056 179.367 482.389 177.842 481.112 176.601L479.718 178.035ZM481.074 181.121C481.062 181.945 480.846 182.684 480.428 183.361L482.129 184.412C482.741 183.422 483.056 182.328 483.074 181.152L481.074 181.121ZM480.425 183.365C480.008 184.048 479.463 184.593 478.78 185.01L479.823 186.717C480.776 186.134 481.549 185.361 482.132 184.408L480.425 183.365ZM478.791 185.003C478.131 185.395 477.413 185.591 476.619 185.591V187.591C477.765 187.591 478.835 187.302 479.811 186.724L478.791 185.003Z" fill="black"/>
</g>
<g id="&#195;&#135;A ou &#195;&#135;A?_2" filter="url(#filter67_b_0_1)">
<path d="M210.114 155.75H200.159C199.977 154.462 199.606 153.318 199.045 152.318C198.485 151.303 197.765 150.439 196.886 149.727C196.008 149.015 194.992 148.47 193.841 148.091C192.705 147.712 191.47 147.523 190.136 147.523C187.727 147.523 185.629 148.121 183.841 149.318C182.053 150.5 180.667 152.227 179.682 154.5C178.697 156.758 178.205 159.5 178.205 162.727C178.205 166.045 178.697 168.833 179.682 171.091C180.682 173.348 182.076 175.053 183.864 176.205C185.652 177.356 187.72 177.932 190.068 177.932C191.386 177.932 192.606 177.758 193.727 177.409C194.864 177.061 195.871 176.553 196.75 175.886C197.629 175.205 198.356 174.379 198.932 173.409C199.523 172.439 199.932 171.333 200.159 170.091L210.114 170.136C209.856 172.273 209.212 174.333 208.182 176.318C207.167 178.288 205.795 180.053 204.068 181.614C202.356 183.159 200.311 184.386 197.932 185.295C195.568 186.189 192.894 186.636 189.909 186.636C185.758 186.636 182.045 185.697 178.773 183.818C175.515 181.939 172.939 179.22 171.045 175.659C169.167 172.098 168.227 167.788 168.227 162.727C168.227 157.652 169.182 153.333 171.091 149.773C173 146.212 175.591 143.5 178.864 141.636C182.136 139.758 185.818 138.818 189.909 138.818C192.606 138.818 195.106 139.197 197.409 139.955C199.727 140.712 201.78 141.818 203.568 143.273C205.356 144.712 206.811 146.477 207.932 148.568C209.068 150.659 209.795 153.053 210.114 155.75ZM187.477 185.864H191.932L191.568 187.841C193.129 188.083 194.402 188.667 195.386 189.591C196.386 190.515 196.894 191.773 196.909 193.364C196.924 195.621 195.879 197.417 193.773 198.75C191.667 200.098 188.712 200.773 184.909 200.773L184.818 196.455C186.727 196.455 188.22 196.22 189.295 195.75C190.386 195.295 190.955 194.583 191 193.614C191.03 192.689 190.674 191.985 189.932 191.5C189.189 191.015 188.03 190.674 186.455 190.477L187.477 185.864ZM224.318 186H213.773L229.841 139.455H242.523L258.568 186H248.023L236.364 150.091H236L224.318 186ZM223.659 167.705H248.568V175.386H223.659V167.705ZM294.574 186.682C291.044 186.682 287.991 185.932 285.415 184.432C282.854 182.917 280.877 180.811 279.483 178.114C278.089 175.402 277.392 172.258 277.392 168.682C277.392 165.076 278.089 161.924 279.483 159.227C280.877 156.515 282.854 154.409 285.415 152.909C287.991 151.394 291.044 150.636 294.574 150.636C298.104 150.636 301.15 151.394 303.71 152.909C306.286 154.409 308.271 156.515 309.665 159.227C311.059 161.924 311.756 165.076 311.756 168.682C311.756 172.258 311.059 175.402 309.665 178.114C308.271 180.811 306.286 182.917 303.71 184.432C301.15 185.932 298.104 186.682 294.574 186.682ZM294.619 179.182C296.225 179.182 297.566 178.727 298.642 177.818C299.718 176.894 300.528 175.636 301.074 174.045C301.634 172.455 301.915 170.644 301.915 168.614C301.915 166.583 301.634 164.773 301.074 163.182C300.528 161.591 299.718 160.333 298.642 159.409C297.566 158.485 296.225 158.023 294.619 158.023C292.998 158.023 291.634 158.485 290.528 159.409C289.438 160.333 288.612 161.591 288.051 163.182C287.506 164.773 287.233 166.583 287.233 168.614C287.233 170.644 287.506 172.455 288.051 174.045C288.612 175.636 289.438 176.894 290.528 177.818C291.634 178.727 292.998 179.182 294.619 179.182ZM340.438 171.136V151.091H350.119V186H340.824V179.659H340.46C339.672 181.705 338.362 183.348 336.528 184.591C334.71 185.833 332.491 186.455 329.869 186.455C327.536 186.455 325.483 185.924 323.71 184.864C321.938 183.803 320.551 182.295 319.551 180.341C318.566 178.386 318.066 176.045 318.051 173.318V151.091H327.733V171.591C327.748 173.652 328.301 175.28 329.392 176.477C330.483 177.674 331.945 178.273 333.778 178.273C334.945 178.273 336.036 178.008 337.051 177.477C338.066 176.932 338.884 176.129 339.506 175.068C340.142 174.008 340.453 172.697 340.438 171.136ZM413.926 155.75H403.972C403.79 154.462 403.419 153.318 402.858 152.318C402.297 151.303 401.578 150.439 400.699 149.727C399.82 149.015 398.805 148.47 397.653 148.091C396.517 147.712 395.282 147.523 393.949 147.523C391.54 147.523 389.441 148.121 387.653 149.318C385.866 150.5 384.479 152.227 383.494 154.5C382.509 156.758 382.017 159.5 382.017 162.727C382.017 166.045 382.509 168.833 383.494 171.091C384.494 173.348 385.888 175.053 387.676 176.205C389.464 177.356 391.532 177.932 393.881 177.932C395.199 177.932 396.419 177.758 397.54 177.409C398.676 177.061 399.684 176.553 400.562 175.886C401.441 175.205 402.169 174.379 402.744 173.409C403.335 172.439 403.744 171.333 403.972 170.091L413.926 170.136C413.669 172.273 413.025 174.333 411.994 176.318C410.979 178.288 409.608 180.053 407.881 181.614C406.169 183.159 404.123 184.386 401.744 185.295C399.381 186.189 396.706 186.636 393.722 186.636C389.57 186.636 385.858 185.697 382.585 183.818C379.328 181.939 376.752 179.22 374.858 175.659C372.979 172.098 372.04 167.788 372.04 162.727C372.04 157.652 372.994 153.333 374.903 149.773C376.813 146.212 379.403 143.5 382.676 141.636C385.949 139.758 389.631 138.818 393.722 138.818C396.419 138.818 398.919 139.197 401.222 139.955C403.54 140.712 405.593 141.818 407.381 143.273C409.169 144.712 410.623 146.477 411.744 148.568C412.881 150.659 413.608 153.053 413.926 155.75ZM391.29 185.864H395.744L395.381 187.841C396.941 188.083 398.214 188.667 399.199 189.591C400.199 190.515 400.706 191.773 400.722 193.364C400.737 195.621 399.691 197.417 397.585 198.75C395.479 200.098 392.525 200.773 388.722 200.773L388.631 196.455C390.54 196.455 392.032 196.22 393.108 195.75C394.199 195.295 394.767 194.583 394.812 193.614C394.843 192.689 394.487 191.985 393.744 191.5C393.002 191.015 391.843 190.674 390.267 190.477L391.29 185.864ZM428.131 186H417.585L433.653 139.455H446.335L462.381 186H451.835L440.176 150.091H439.812L428.131 186ZM427.472 167.705H452.381V175.386H427.472V167.705ZM472.119 172.045V171.273C472.134 168.621 472.369 166.508 472.824 164.932C473.294 163.356 473.975 162.083 474.869 161.114C475.763 160.144 476.839 159.265 478.097 158.477C479.036 157.871 479.877 157.242 480.619 156.591C481.362 155.939 481.953 155.22 482.392 154.432C482.831 153.629 483.051 152.735 483.051 151.75C483.051 150.705 482.801 149.788 482.301 149C481.801 148.212 481.127 147.606 480.278 147.182C479.445 146.758 478.521 146.545 477.506 146.545C476.521 146.545 475.589 146.765 474.71 147.205C473.831 147.629 473.112 148.265 472.551 149.114C471.991 149.947 471.688 150.985 471.642 152.227H462.369C462.445 149.197 463.172 146.697 464.551 144.727C465.93 142.742 467.756 141.265 470.028 140.295C472.301 139.311 474.809 138.818 477.551 138.818C480.566 138.818 483.233 139.318 485.551 140.318C487.869 141.303 489.688 142.735 491.006 144.614C492.324 146.492 492.983 148.758 492.983 151.409C492.983 153.182 492.688 154.758 492.097 156.136C491.521 157.5 490.71 158.712 489.665 159.773C488.619 160.818 487.384 161.765 485.96 162.614C484.763 163.326 483.778 164.068 483.006 164.841C482.248 165.614 481.68 166.508 481.301 167.523C480.938 168.538 480.748 169.788 480.733 171.273V172.045H472.119ZM476.619 186.591C475.104 186.591 473.809 186.061 472.733 185C471.672 183.924 471.15 182.636 471.165 181.136C471.15 179.652 471.672 178.379 472.733 177.318C473.809 176.258 475.104 175.727 476.619 175.727C478.059 175.727 479.324 176.258 480.415 177.318C481.506 178.379 482.059 179.652 482.074 181.136C482.059 182.136 481.794 183.053 481.278 183.886C480.778 184.705 480.119 185.364 479.301 185.864C478.483 186.348 477.589 186.591 476.619 186.591Z" fill="#FCD53E"/>
</g>
</g>
</g>
</g>
<defs>
<filter id="filter0_f_0_1" x="314" y="77" width="34" height="34" filterUnits="userSpaceOnUse" color-interpolation-filters="sRGB">
<feFlood flood-opacity="0" result="BackgroundImageFix"/>
<feBlend mode="normal" in="SourceGraphic" in2="BackgroundImageFix" result="shape"/>
<feGaussianBlur stdDeviation="2" result="effect1_foregroundBlur_0_1"/>
</filter>
<filter id="filter1_f_0_1" x="320" y="83" width="22" height="22" filterUnits="userSpaceOnUse" color-interpolation-filters="sRGB">
<feFlood flood-opacity="0" result="BackgroundImageFix"/>
<feBlend mode="normal" in="SourceGraphic" in2="BackgroundImageFix" result="shape"/>
<feGaussianBlur stdDeviation="0.5" result="effect1_foregroundBlur_0_1"/>
</filter>
<filter id="filter2_f_0_1" x="278" y="77" width="34" height="34" filterUnits="userSpaceOnUse" color-interpolation-filters="sRGB">
<feFlood flood-opacity="0" result="BackgroundImageFix"/>
<feBlend mode="normal" in="SourceGraphic" in2="BackgroundImageFix" result="shape"/>
<feGaussianBlur stdDeviation="2" result="effect1_foregroundBlur_0_1"/>
</filter>
<filter id="filter3_f_0_1" x="284" y="83" width="22" height="22" filterUnits="userSpaceOnUse" color-interpolation-filters="sRGB">
<feFlood flood-opacity="0" result="BackgroundImageFix"/>
<feBlend mode="normal" in="SourceGraphic" in2="BackgroundImageFix" result="shape"/>
<feGaussianBlur stdDeviation="0.5" result="effect1_foregroundBlur_0_1"/>
</filter>
<filter id="filter4_f_0_1" x="314" y="77" width="34" height="34" filterUnits="userSpaceOnUse" color-interpolation-filters="sRGB">
<feFlood flood-opacity="0" result="BackgroundImageFix"/>
<feBlend mode="normal" in="SourceGraphic" in2="BackgroundImageFix" result="shape"/>
<feGaussianBlur stdDeviation="2" result="effect1_foregroundBlur_0_1"/>
</filter>
<filter id="filter5_f_0_1" x="320" y="83" width="22" height="22" filterUnits="userSpaceOnUse" color-interpolation-filters="sRGB">
<feFlood flood-opacity="0" result="BackgroundImageFix"/>
<feBlend mode="normal" in="SourceGraphic" in2="BackgroundImageFix" result="shape"/>
<feGaussianBlur stdDeviation="0.5" result="effect1_foregroundBlur_0_1"/>
</filter>
<filter id="filter6_f_0_1" x="350" y="77" width="34" height="34" filterUnits="userSpaceOnUse" color-interpolation-filters="sRGB">
<feFlood flood-opacity="0" result="BackgroundImageFix"/>
<feBlend mode="normal" in="SourceGraphic" in2="BackgroundImageFix" result="shape"/>
<feGaussianBlur stdDeviation="2" result="effect1_foregroundBlur_0_1"/>
</filter>
<filter id="filter7_f_0_1" x="356" y="83" width="22" height="22" filterUnits="userSpaceOnUse" color-interpolation-filters="sRGB">
<feFlood flood-opacity="0" result="BackgroundImageFix"/>
<feBlend mode="normal" in="SourceGraphic" in2="BackgroundImageFix" result="shape"/>
<feGaussianBlur stdDeviation="0.5" result="effect1_foregroundBlur_0_1"/>
</filter>
<filter id="filter8_f_0_1" x="386" y="77" width="34" height="34" filterUnits="userSpaceOnUse" color-interpolation-filters="sRGB">
<feFlood flood-opacity="0" result="BackgroundImageFix"/>
<feBlend mode="normal" in="SourceGraphic" in2="BackgroundImageFix" result="shape"/>
<feGaussianBlur stdDeviation="2" result="effect1_foregroundBlur_0_1"/>
</filter>
<filter id="filter9_f_0_1" x="392" y="83" width="22" height="22" filterUnits="userSpaceOnUse" color-interpolation-filters="sRGB">
<feFlood flood-opacity="0" result="BackgroundImageFix"/>
<feBlend mode="normal" in="SourceGraphic" in2="BackgroundImageFix" result="shape"/>
<feGaussianBlur stdDeviation="0.5" result="effect1_foregroundBlur_0_1"/>
</filter>
<filter id="filter10_f_0_1" x="422" y="77" width="34" height="34" filterUnits="userSpaceOnUse" color-interpolation-filters="sRGB">
<feFlood flood-opacity="0" result="BackgroundImageFix"/>
<feBlend mode="normal" in="SourceGraphic" in2="BackgroundImageFix" result="shape"/>
<feGaussianBlur stdDeviation="2" result="effect1_foregroundBlur_0_1"/>
</filter>
<filter id="filter11_f_0_1" x="428" y="83" width="22" height="22" filterUnits="userSpaceOnUse" color-interpolation-filters="sRGB">
<feFlood flood-opacity="0" result="BackgroundImageFix"/>
<feBlend mode="normal" in="SourceGraphic" in2="BackgroundImageFix" result="shape"/>
<feGaussianBlur stdDeviation="0.5" result="effect1_foregroundBlur_0_1"/>
</filter>
<filter id="filter12_f_0_1" x="458" y="77" width="34" height="34" filterUnits="userSpaceOnUse" color-interpolation-filters="sRGB">
<feFlood flood-opacity="0" result="BackgroundImageFix"/>
<feBlend mode="normal" in="SourceGraphic" in2="BackgroundImageFix" result="shape"/>
<feGaussianBlur stdDeviation="2" result="effect1_foregroundBlur_0_1"/>
</filter>
<filter id="filter13_f_0_1" x="464" y="83" width="22" height="22" filterUnits="userSpaceOnUse" color-interpolation-filters="sRGB">
<feFlood flood-opacity="0" result="BackgroundImageFix"/>
<feBlend mode="normal" in="SourceGraphic" in2="BackgroundImageFix" result="shape"/>
<feGaussianBlur stdDeviation="0.5" result="effect1_foregroundBlur_0_1"/>
</filter>
<filter id="filter14_f_0_1" x="494" y="77" width="34" height="34" filterUnits="userSpaceOnUse" color-interpolation-filters="sRGB">
<feFlood flood-opacity="0" result="BackgroundImageFix"/>
<feBlend mode="normal" in="SourceGraphic" in2="BackgroundImageFix" result="shape"/>
<feGaussianBlur stdDeviation="2" result="effect1_foregroundBlur_0_1"/>
</filter>
<filter id="filter15_f_0_1" x="500" y="83" width="22" height="22" filterUnits="userSpaceOnUse" color-interpolation-filters="sRGB">
<feFlood flood-opacity="0" result="BackgroundImageFix"/>
<feBlend mode="normal" in="SourceGraphic" in2="BackgroundImageFix" result="shape"/>
<feGaussianBlur stdDeviation="0.5" result="effect1_foregroundBlur_0_1"/>
</filter>
<filter id="filter16_f_0_1" x="530" y="77" width="34" height="34" filterUnits="userSpaceOnUse" color-interpolation-filters="sRGB">
<feFlood flood-opacity="0" result="BackgroundImageFix"/>
<feBlend mode="normal" in="SourceGraphic" in2="BackgroundImageFix" result="shape"/>
<feGaussianBlur stdDeviation="2" result="effect1_foregroundBlur_0_1"/>
</filter>
<filter id="filter17_f_0_1" x="536" y="83" width="22" height="22" filterUnits="userSpaceOnUse" color-interpolation-filters="sRGB">
<feFlood flood-opacity="0" result="BackgroundImageFix"/>
<feBlend mode="normal" in="SourceGraphic" in2="BackgroundImageFix" result="shape"/>
<feGaussianBlur stdDeviation="0.5" result="effect1_foregroundBlur_0_1"/>
</filter>
<filter id="filter18_f_0_1" x="134" y="77" width="34" height="34" filterUnits="userSpaceOnUse" color-interpolation-filters="sRGB">
<feFlood flood-opacity="0" result="BackgroundImageFix"/>
<feBlend mode="normal" in="SourceGraphic" in2="BackgroundImageFix" result="shape"/>
<feGaussianBlur stdDeviation="2" result="effect1_foregroundBlur_0_1"/>
</filter>
<filter id="filter19_f_0_1" x="140" y="83" width="22" height="22" filterUnits="userSpaceOnUse" color-interpolation-filters="sRGB">
<feFlood flood-opacity="0" result="BackgroundImageFix"/>
<feBlend mode="normal" in="SourceGraphic" in2="BackgroundImageFix" result="shape"/>
<feGaussianBlur stdDeviation="0.5" result="effect1_foregroundBlur_0_1"/>
</filter>
<filter id="filter20_f_0_1" x="170" y="77" width="34" height="34" filterUnits="userSpaceOnUse" color-interpolation-filters="sRGB">
<feFlood flood-opacity="0" result="BackgroundImageFix"/>
<feBlend mode="normal" in="SourceGraphic" in2="BackgroundImageFix" result="shape"/>
<feGaussianBlur stdDeviation="2" result="effect1_foregroundBlur_0_1"/>
</filter>
<filter id="filter21_f_0_1" x="176" y="83" width="22" height="22" filterUnits="userSpaceOnUse" color-interpolation-filters="sRGB">
<feFlood flood-opacity="0" result="BackgroundImageFix"/>
<feBlend mode="normal" in="SourceGraphic" in2="BackgroundImageFix" result="shape"/>
<feGaussianBlur stdDeviation="0.5" result="effect1_foregroundBlur_0_1"/>
</filter>
<filter id="filter22_f_0_1" x="98" y="77" width="34" height="34" filterUnits="userSpaceOnUse" color-interpolation-filters="sRGB">
<feFlood flood-opacity="0" result="BackgroundImageFix"/>
<feBlend mode="normal" in="SourceGraphic" in2="BackgroundImageFix" result="shape"/>
<feGaussianBlur stdDeviation="2" result="effect1_foregroundBlur_0_1"/>
</filter>
<filter id="filter23_f_0_1" x="104" y="83" width="22" height="22" filterUnits="userSpaceOnUse" color-interpolation-filters="sRGB">
<feFlood flood-opacity="0" result="BackgroundImageFix"/>
<feBlend mode="normal" in="SourceGraphic" in2="BackgroundImageFix" result="shape"/>
<feGaussianBlur stdDeviation="0.5" result="effect1_foregroundBlur_0_1"/>
</filter>
<filter id="filter24_f_0_1" x="98" y="115" width="34" height="34" filterUnits="userSpaceOnUse" color-interpolation-filters="sRGB">
<feFlood flood-opacity="0" result="BackgroundImageFix"/>
<feBlend mode="normal" in="SourceGraphic" in2="BackgroundImageFix" result="shape"/>
<feGaussianBlur stdDeviation="2" result="effect1_foregroundBlur_0_1"/>
</filter>
<filter id="filter25_f_0_1" x="104" y="121" width="22" height="22" filterUnits="userSpaceOnUse" color-interpolation-filters="sRGB">
<feFlood flood-opacity="0" result="BackgroundImageFix"/>
<feBlend mode="normal" in="SourceGraphic" in2="BackgroundImageFix" result="shape"/>
<feGaussianBlur stdDeviation="0.5" result="effect1_foregroundBlur_0_1"/>
</filter>
<filter id="filter26_f_0_1" x="98" y="150" width="34" height="34" filterUnits="userSpaceOnUse" color-interpolation-filters="sRGB">
<feFlood flood-opacity="0" result="BackgroundImageFix"/>
<feBlend mode="normal" in="SourceGraphic" in2="BackgroundImageFix" result="shape"/>
<feGaussianBlur stdDeviation="2" result="effect1_foregroundBlur_0_1"/>
</filter>
<filter id="filter27_f_0_1" x="104" y="156" width="22" height="22" filterUnits="userSpaceOnUse" color-interpolation-filters="sRGB">
<feFlood flood-opacity="0" result="BackgroundImageFix"/>
<feBlend mode="normal" in="SourceGraphic" in2="BackgroundImageFix" result="shape"/>
<feGaussianBlur stdDeviation="0.5" result="effect1_foregroundBlur_0_1"/>
</filter>
<filter id="filter28_f_0_1" x="98" y="185" width="34" height="34" filterUnits="userSpaceOnUse" color-interpolation-filters="sRGB">
<feFlood flood-opacity="0" result="BackgroundImageFix"/>
<feBlend mode="normal" in="SourceGraphic" in2="BackgroundImageFix" result="shape"/>
<feGaussianBlur stdDeviation="2" result="effect1_foregroundBlur_0_1"/>
</filter>
<filter id="filter29_f_0_1" x="104" y="191" width="22" height="22" filterUnits="userSpaceOnUse" color-interpolation-filters="sRGB">
<feFlood flood-opacity="0" result="BackgroundImageFix"/>
<feBlend mode="normal" in="SourceGraphic" in2="BackgroundImageFix" result="shape"/>
<feGaussianBlur stdDeviation="0.5" result="effect1_foregroundBlur_0_1"/>
</filter>
<filter id="filter30_f_0_1" x="98" y="223" width="34" height="34" filterUnits="userSpaceOnUse" color-interpolation-filters="sRGB">
<feFlood flood-opacity="0" result="BackgroundImageFix"/>
<feBlend mode="normal" in="SourceGraphic" in2="BackgroundImageFix" result="shape"/>
<feGaussianBlur stdDeviation="2" result="effect1_foregroundBlur_0_1"/>
</filter>
<filter id="filter31_f_0_1" x="104" y="229" width="22" height="22" filterUnits="userSpaceOnUse" color-interpolation-filters="sRGB">
<feFlood flood-opacity="0" result="BackgroundImageFix"/>
<feBlend mode="normal" in="SourceGraphic" in2="BackgroundImageFix" result="shape"/>
<feGaussianBlur stdDeviation="0.5" result="effect1_foregroundBlur_0_1"/>
</filter>
<filter id="filter32_f_0_1" x="530" y="115" width="34" height="34" filterUnits="userSpaceOnUse" color-interpolation-filters="sRGB">
<feFlood flood-opacity="0" result="BackgroundImageFix"/>
<feBlend mode="normal" in="SourceGraphic" in2="BackgroundImageFix" result="shape"/>
<feGaussianBlur stdDeviation="2" result="effect1_foregroundBlur_0_1"/>
</filter>
<filter id="filter33_f_0_1" x="536" y="121" width="22" height="22" filterUnits="userSpaceOnUse" color-interpolation-filters="sRGB">
<feFlood flood-opacity="0" result="BackgroundImageFix"/>
<feBlend mode="normal" in="SourceGraphic" in2="BackgroundImageFix" result="shape"/>
<feGaussianBlur stdDeviation="0.5" result="effect1_foregroundBlur_0_1"/>
</filter>
<filter id="filter34_f_0_1" x="530" y="150" width="34" height="34" filterUnits="userSpaceOnUse" color-interpolation-filters="sRGB">
<feFlood flood-opacity="0" result="BackgroundImageFix"/>
<feBlend mode="normal" in="SourceGraphic" in2="BackgroundImageFix" result="shape"/>
<feGaussianBlur stdDeviation="2" result="effect1_foregroundBlur_0_1"/>
</filter>
<filter id="filter35_f_0_1" x="536" y="156" width="22" height="22" filterUnits="userSpaceOnUse" color-interpolation-filters="sRGB">
<feFlood flood-opacity="0" result="BackgroundImageFix"/>
<feBlend mode="normal" in="SourceGraphic" in2="BackgroundImageFix" result="shape"/>
<feGaussianBlur stdDeviation="0.5" result="effect1_foregroundBlur_0_1"/>
</filter>
<filter id="filter36_f_0_1" x="530" y="185" width="34" height="34" filterUnits="userSpaceOnUse" color-interpolation-filters="sRGB">
<feFlood flood-opacity="0" result="BackgroundImageFix"/>
<feBlend mode="normal" in="SourceGraphic" in2="BackgroundImageFix" result="shape"/>
<feGaussianBlur stdDeviation="2" result="effect1_foregroundBlur_0_1"/>
</filter>
<filter id="filter37_f_0_1" x="536" y="191" width="22" height="22" filterUnits="userSpaceOnUse" color-interpolation-filters="sRGB">
<feFlood flood-opacity="0" result="BackgroundImageFix"/>
<feBlend mode="normal" in="SourceGraphic" in2="BackgroundImageFix" result="shape"/>
<feGaussianBlur stdDeviation="0.5" result="effect1_foregroundBlur_0_1"/>
</filter>
<filter id="filter38_f_0_1" x="530" y="223" width="34" height="34" filterUnits="userSpaceOnUse" color-interpolation-filters="sRGB">
<feFlood flood-opacity="0" result="BackgroundImageFix"/>
<feBlend mode="normal" in="SourceGraphic" in2="BackgroundImageFix" result="shape"/>
<feGaussianBlur stdDeviation="2" result="effect1_foregroundBlur_0_1"/>
</filter>
<filter id="filter39_f_0_1" x="536" y="229" width="22" height="22" filterUnits="userSpaceOnUse" color-interpolation-filters="sRGB">
<feFlood flood-opacity="0" result="BackgroundImageFix"/>
<feBlend mode="normal" in="SourceGraphic" in2="BackgroundImageFix" result="shape"/>
<feGaussianBlur stdDeviation="0.5" result="effect1_foregroundBlur_0_1"/>
</filter>
<filter id="filter40_f_0_1" x="206" y="77" width="34" height="34" filterUnits="userSpaceOnUse" color-interpolation-filters="sRGB">
<feFlood flood-opacity="0" result="BackgroundImageFix"/>
<feBlend mode="normal" in="SourceGraphic" in2="BackgroundImageFix" result="shape"/>
<feGaussianBlur stdDeviation="2" result="effect1_foregroundBlur_0_1"/>
</filter>
<filter id="filter41_f_0_1" x="212" y="83" width="22" height="22" filterUnits="userSpaceOnUse" color-interpolation-filters="sRGB">
<feFlood flood-opacity="0" result="BackgroundImageFix"/>
<feBlend mode="normal" in="SourceGraphic" in2="BackgroundImageFix" result="shape"/>
<feGaussianBlur stdDeviation="0.5" result="effect1_foregroundBlur_0_1"/>
</filter>
<filter id="filter42_f_0_1" x="242" y="77" width="34" height="34" filterUnits="userSpaceOnUse" color-interpolation-filters="sRGB">
<feFlood flood-opacity="0" result="BackgroundImageFix"/>
<feBlend mode="normal" in="SourceGraphic" in2="BackgroundImageFix" result="shape"/>
<feGaussianBlur stdDeviation="2" result="effect1_foregroundBlur_0_1"/>
</filter>
<filter id="filter43_f_0_1" x="248" y="83" width="22" height="22" filterUnits="userSpaceOnUse" color-interpolation-filters="sRGB">
<feFlood flood-opacity="0" result="BackgroundImageFix"/>
<feBlend mode="normal" in="SourceGraphic" in2="BackgroundImageFix" result="shape"/>
<feGaussianBlur stdDeviation="0.5" result="effect1_foregroundBlur_0_1"/>
</filter>
<filter id="filter44_f_0_1" x="278" y="223" width="34" height="34" filterUnits="userSpaceOnUse" color-interpolation-filters="sRGB">
<feFlood flood-opacity="0" result="BackgroundImageFix"/>
<feBlend mode="normal" in="SourceGraphic" in2="BackgroundImageFix" result="shape"/>
<feGaussianBlur stdDeviation="2" result="effect1_foregroundBlur_0_1"/>
</filter>
<filter id="filter45_f_0_1" x="284" y="229" width="22" height="22" filterUnits="userSpaceOnUse" color-interpolation-filters="sRGB">
<feFlood flood-opacity="0" result="BackgroundImageFix"/>
<feBlend mode="normal" in="SourceGraphic" in2="BackgroundImageFix" result="shape"/>
<feGaussianBlur stdDeviation="0.5" result="effect1_foregroundBlur_0_1"/>
</filter>
<filter id="filter46_f_0_1" x="314" y="223" width="34" height="34" filterUnits="userSpaceOnUse" color-interpolation-filters="sRGB">
<feFlood flood-opacity="0" result="BackgroundImageFix"/>
<feBlend mode="normal" in="SourceGraphic" in2="BackgroundImageFix" result="shape"/>
<feGaussianBlur stdDeviation="2" result="effect1_foregroundBlur_0_1"/>
</filter>
<filter id="filter47_f_0_1" x="320" y="229" width="22" height="22" filterUnits="userSpaceOnUse" color-interpolation-filters="sRGB">
<feFlood flood-opacity="0" result="BackgroundImageFix"/>
<feBlend mode="normal" in="SourceGraphic" in2="BackgroundImageFix" result="shape"/>
<feGaussianBlur stdDeviation="0.5" result="effect1_foregroundBlur_0_1"/>
</filter>
<filter id="filter48_f_0_1" x="350" y="223" width="34" height="34" filterUnits="userSpaceOnUse" color-interpolation-filters="sRGB">
<feFlood flood-opacity="0" result="BackgroundImageFix"/>
<feBlend mode="normal" in="SourceGraphic" in2="BackgroundImageFix" result="shape"/>
<feGaussianBlur stdDeviation="2" result="effect1_foregroundBlur_0_1"/>
</filter>
<filter id="filter49_f_0_1" x="356" y="229" width="22" height="22" filterUnits="userSpaceOnUse" color-interpolation-filters="sRGB">
<feFlood flood-opacity="0" result="BackgroundImageFix"/>
<feBlend mode="normal" in="SourceGraphic" in2="BackgroundImageFix" result="shape"/>
<feGaussianBlur stdDeviation="0.5" result="effect1_foregroundBlur_0_1"/>
</filter>
<filter id="filter50_f_0_1" x="386" y="223" width="34" height="34" filterUnits="userSpaceOnUse" color-interpolation-filters="sRGB">
<feFlood flood-opacity="0" result="BackgroundImageFix"/>
<feBlend mode="normal" in="SourceGraphic" in2="BackgroundImageFix" result="shape"/>
<feGaussianBlur stdDeviation="2" result="effect1_foregroundBlur_0_1"/>
</filter>
<filter id="filter51_f_0_1" x="392" y="229" width="22" height="22" filterUnits="userSpaceOnUse" color-interpolation-filters="sRGB">
<feFlood flood-opacity="0" result="BackgroundImageFix"/>
<feBlend mode="normal" in="SourceGraphic" in2="BackgroundImageFix" result="shape"/>
<feGaussianBlur stdDeviation="0.5" result="effect1_foregroundBlur_0_1"/>
</filter>
<filter id="filter52_f_0_1" x="422" y="223" width="34" height="34" filterUnits="userSpaceOnUse" color-interpolation-filters="sRGB">
<feFlood flood-opacity="0" result="BackgroundImageFix"/>
<feBlend mode="normal" in="SourceGraphic" in2="BackgroundImageFix" result="shape"/>
<feGaussianBlur stdDeviation="2" result="effect1_foregroundBlur_0_1"/>
</filter>
<filter id="filter53_f_0_1" x="428" y="229" width="22" height="22" filterUnits="userSpaceOnUse" color-interpolation-filters="sRGB">
<feFlood flood-opacity="0" result="BackgroundImageFix"/>
<feBlend mode="normal" in="SourceGraphic" in2="BackgroundImageFix" result="shape"/>
<feGaussianBlur stdDeviation="0.5" result="effect1_foregroundBlur_0_1"/>
</filter>
<filter id="filter54_f_0_1" x="458" y="223" width="34" height="34" filterUnits="userSpaceOnUse" color-interpolation-filters="sRGB">
<feFlood flood-opacity="0" result="BackgroundImageFix"/>
<feBlend mode="normal" in="SourceGraphic" in2="BackgroundImageFix" result="shape"/>
<feGaussianBlur stdDeviation="2" result="effect1_foregroundBlur_0_1"/>
</filter>
<filter id="filter55_f_0_1" x="464" y="229" width="22" height="22" filterUnits="userSpaceOnUse" color-interpolation-filters="sRGB">
<feFlood flood-opacity="0" result="BackgroundImageFix"/>
<feBlend mode="normal" in="SourceGraphic" in2="BackgroundImageFix" result="shape"/>
<feGaussianBlur stdDeviation="0.5" result="effect1_foregroundBlur_0_1"/>
</filter>
<filter id="filter56_f_0_1" x="494" y="223" width="34" height="34" filterUnits="userSpaceOnUse" color-interpolation-filters="sRGB">
<feFlood flood-opacity="0" result="BackgroundImageFix"/>
<feBlend mode="normal" in="SourceGraphic" in2="BackgroundImageFix" result="shape"/>
<feGaussianBlur stdDeviation="2" result="effect1_foregroundBlur_0_1"/>
</filter>
<filter id="filter57_f_0_1" x="500" y="229" width="22" height="22" filterUnits="userSpaceOnUse" color-interpolation-filters="sRGB">
<feFlood flood-opacity="0" result="BackgroundImageFix"/>
<feBlend mode="normal" in="SourceGraphic" in2="BackgroundImageFix" result="shape"/>
<feGaussianBlur stdDeviation="0.5" result="effect1_foregroundBlur_0_1"/>
</filter>
<filter id="filter58_f_0_1" x="134" y="223" width="34" height="34" filterUnits="userSpaceOnUse" color-interpolation-filters="sRGB">
<feFlood flood-opacity="0" result="BackgroundImageFix"/>
<feBlend mode="normal" in="SourceGraphic" in2="BackgroundImageFix" result="shape"/>
<feGaussianBlur stdDeviation="2" result="effect1_foregroundBlur_0_1"/>
</filter>
<filter id="filter59_f_0_1" x="140" y="229" width="22" height="22" filterUnits="userSpaceOnUse" color-interpolation-filters="sRGB">
<feFlood flood-opacity="0" result="BackgroundImageFix"/>
<feBlend mode="normal" in="SourceGraphic" in2="BackgroundImageFix" result="shape"/>
<feGaussianBlur stdDeviation="0.5" result="effect1_foregroundBlur_0_1"/>
</filter>
<filter id="filter60_f_0_1" x="170" y="223" width="34" height="34" filterUnits="userSpaceOnUse" color-interpolation-filters="sRGB">
<feFlood flood-opacity="0" result="BackgroundImageFix"/>
<feBlend mode="normal" in="SourceGraphic" in2="BackgroundImageFix" result="shape"/>
<feGaussianBlur stdDeviation="2" result="effect1_foregroundBlur_0_1"/>
</filter>
<filter id="filter61_f_0_1" x="176" y="229" width="22" height="22" filterUnits="userSpaceOnUse" color-interpolation-filters="sRGB">
<feFlood flood-opacity="0" result="BackgroundImageFix"/>
<feBlend mode="normal" in="SourceGraphic" in2="BackgroundImageFix" result="shape"/>
<feGaussianBlur stdDeviation="0.5" result="effect1_foregroundBlur_0_1"/>
</filter>
<filter id="filter62_f_0_1" x="206" y="223" width="34" height="34" filterUnits="userSpaceOnUse" color-interpolation-filters="sRGB">
<feFlood flood-opacity="0" result="BackgroundImageFix"/>
<feBlend mode="normal" in="SourceGraphic" in2="BackgroundImageFix" result="shape"/>
<feGaussianBlur stdDeviation="2" result="effect1_foregroundBlur_0_1"/>
</filter>
<filter id="filter63_f_0_1" x="212" y="229" width="22" height="22" filterUnits="userSpaceOnUse" color-interpolation-filters="sRGB">
<feFlood flood-opacity="0" result="BackgroundImageFix"/>
<feBlend mode="normal" in="SourceGraphic" in2="BackgroundImageFix" result="shape"/>
<feGaussianBlur stdDeviation="0.5" result="effect1_foregroundBlur_0_1"/>
</filter>
<filter id="filter64_f_0_1" x="242" y="223" width="34" height="34" filterUnits="userSpaceOnUse" color-interpolation-filters="sRGB">
<feFlood flood-opacity="0" result="BackgroundImageFix"/>
<feBlend mode="normal" in="SourceGraphic" in2="BackgroundImageFix" result="shape"/>
<feGaussianBlur stdDeviation="2" result="effect1_foregroundBlur_0_1"/>
</filter>
<filter id="filter65_f_0_1" x="248" y="229" width="22" height="22" filterUnits="userSpaceOnUse" color-interpolation-filters="sRGB">
<feFlood flood-opacity="0" result="BackgroundImageFix"/>
<feBlend mode="normal" in="SourceGraphic" in2="BackgroundImageFix" result="shape"/>
<feGaussianBlur stdDeviation="0.5" result="effect1_foregroundBlur_0_1"/>
</filter>
<filter id="filter66_f_0_1" x="158.227" y="128.818" width="344.756" height="81.9546" filterUnits="userSpaceOnUse" color-interpolation-filters="sRGB">
<feFlood flood-opacity="0" result="BackgroundImageFix"/>
<feBlend mode="normal" in="SourceGraphic" in2="BackgroundImageFix" result="shape"/>
<feGaussianBlur stdDeviation="5" result="effect1_foregroundBlur_0_1"/>
</filter>
<filter id="filter67_b_0_1" x="158.227" y="128.818" width="344.756" height="81.9546" filterUnits="userSpaceOnUse" color-interpolation-filters="sRGB">
<feFlood flood-opacity="0" result="BackgroundImageFix"/>
<feGaussianBlur in="BackgroundImage" stdDeviation="5"/>
<feComposite in2="SourceAlpha" operator="in" result="effect1_backgroundBlur_0_1"/>
<feBlend mode="normal" in="SourceGraphic" in2="effect1_backgroundBlur_0_1" result="shape"/>
</filter>
</defs>
</svg>
